<svg width="126" height="72" viewBox="0 0 126 72" fill="none" xmlns="http://www.w3.org/2000/svg">
<mask id="mask0_161_3369" style="mask-type:alpha" maskUnits="userSpaceOnUse" x="80" y="10" width="38" height="22">
<rect x="80.7429" y="10.2861" width="36.5143" height="21.6" fill="#D9D9D9"/>
</mask>
<g mask="url(#mask0_161_3369)">
<path d="M82.3258 25.3342C83.6973 21.3225 86.804 19.8431 90.053 19.666C92.5116 19.666 93.8288 21.703 92.6873 27.6369C91.774 32.384 85.4576 31.5633 82.4136 30.5596C82.0716 30.3643 81.5082 27.7255 82.3258 25.3342Z" fill="#D9D9D9"/>
<path d="M89.9923 19.666C90.673 19.666 91.3212 19.7967 91.8806 20.1223C92.4452 20.4508 92.8722 20.9505 93.1535 21.6102C93.7021 22.8969 93.7149 24.8326 93.1528 27.5383C92.9021 28.7453 92.269 29.6273 91.3961 30.2323C90.5368 30.8278 89.4801 31.1316 88.4042 31.2578C86.2613 31.5092 83.8829 31.0747 82.3484 30.6061L82.2915 30.5886L82.2392 30.5611C82.1168 30.4963 82.0363 30.4089 81.9896 30.3506C81.9386 30.2868 81.8973 30.2188 81.8641 30.1556C81.7975 30.0291 81.7402 29.8786 81.6913 29.7183C81.5927 29.3949 81.5119 28.976 81.4696 28.5028C81.3852 27.5585 81.449 26.34 81.882 25.1674C82.5923 23.2436 83.7654 21.899 85.205 21.0195C86.6369 20.1448 88.2975 19.7507 89.9598 19.6668L89.9761 19.666H89.9923ZM90.0076 20.787C88.5046 20.865 87.0695 21.2197 85.862 21.9573C84.6577 22.693 83.6449 23.8303 83.0164 25.5327C82.6513 26.5215 82.591 27.5766 82.6655 28.4094C82.7026 28.8247 82.772 29.1704 82.8455 29.4114C82.8692 29.4892 82.8921 29.5507 82.9116 29.597C84.3469 30.0117 86.431 30.3597 88.2545 30.1458C89.2029 30.0345 90.0407 29.7761 90.6811 29.3322C91.3078 28.8979 91.7797 28.2632 91.9747 27.3247C92.5269 24.6666 92.4542 22.9998 92.0385 22.0249C91.8376 21.5538 91.5628 21.2579 91.2461 21.0736C90.9274 20.8881 90.5197 20.7889 90.0076 20.787Z" fill="#0A2342"/>
<path d="M88.9326 24.857C88.9859 24.5148 89.2885 24.2836 89.6083 24.3407C89.9281 24.3977 90.1442 24.7213 90.0909 25.0634C90.0681 25.2098 90.0789 25.293 90.0885 25.3319C90.0972 25.3672 90.1072 25.3775 90.1091 25.3796C90.1137 25.3845 90.1235 25.3925 90.1417 25.3996C90.1506 25.4031 90.1598 25.4056 90.1683 25.4071C90.1724 25.4079 90.1759 25.4085 90.1786 25.4087C90.1809 25.4089 90.1823 25.4089 90.1827 25.4089C90.5069 25.4089 90.7698 25.6901 90.7698 26.037C90.7698 26.3839 90.5069 26.6651 90.1827 26.6651C89.9276 26.6651 89.5608 26.5725 89.2749 26.2638C88.963 25.9269 88.8421 25.4377 88.9326 24.857Z" fill="#0A2342"/>
<path d="M99.4227 50.6619C102.966 47.7916 107.251 45.0317 107.251 39.8155C106.6 36.143 106.085 33.9052 107.917 29.5998C108.199 28.9375 109.616 24.3633 110.083 22.5621C111.415 17.4184 107.917 12.3643 102.921 11.457C101.751 11.2447 99.5226 11.0596 97.5905 11.7882C95.1753 12.699 93.4264 14.5626 92.2604 18.454C92.1307 18.8869 92.0185 19.3301 91.912 19.7788C90.1783 24.6638 90.7613 27.396 84.4319 29.1348C78.8651 30.664 75.4651 37.3316 74.438 40.3951C74.438 40.3951 90.7878 57.6569 99.4227 50.6619Z" fill="white"/>
<path d="M97.6776 11.3562C99.7646 10.5766 102.127 10.78 103.342 10.9986C108.681 11.9588 112.422 17.3025 110.996 22.7552C110.758 23.6646 110.282 25.2607 109.832 26.7053C109.387 28.1336 108.95 29.4723 108.794 29.8362C107.898 31.9213 107.589 33.4744 107.571 34.9352C107.552 36.4171 107.832 37.8248 108.162 39.6727L108.171 39.7222V39.7728C108.171 42.5465 107.013 44.6602 105.428 46.424C103.866 48.1622 101.836 49.6108 100.095 51.008C97.7413 52.8966 94.8831 53.1187 92.0146 52.4622C89.1568 51.8082 86.2234 50.2713 83.6039 48.5432C80.9778 46.8107 78.6314 44.8619 76.9441 43.3495C76.0995 42.5926 75.418 41.9432 74.947 41.4822C74.7115 41.2518 74.5285 41.0683 74.4039 40.942C74.3416 40.8788 74.2939 40.8299 74.2615 40.7966C74.2454 40.7799 74.233 40.7672 74.2246 40.7584C74.2204 40.7541 74.2172 40.7506 74.215 40.7483C74.2139 40.7472 74.213 40.7462 74.2123 40.7456C74.212 40.7452 74.2117 40.7449 74.2115 40.7448C74.2116 40.7443 74.222 40.7343 74.6373 40.3492L74.2112 40.7444L73.9714 40.4937L74.082 40.1668C74.6144 38.5941 75.7523 36.118 77.4755 33.8331C79.1944 31.554 81.5437 29.4022 84.5164 28.5933C87.6063 27.7525 88.8868 26.7088 89.6493 25.385C90.0465 24.6954 90.3198 23.9011 90.6077 22.9405C90.8892 22.001 91.1848 20.9018 91.6212 19.6796C91.7271 19.2388 91.8404 18.7964 91.9722 18.3608C93.1795 14.3693 95.0367 12.3427 97.6776 11.3562ZM103.132 12.1327C101.998 11.9288 99.886 11.7643 98.0928 12.4342C95.8835 13.2595 94.2284 14.9401 93.0942 18.6899C92.9686 19.1052 92.8588 19.5339 92.753 19.9754L92.7459 20.0055L92.7354 20.0347C92.307 21.2305 92.0253 22.2834 91.7306 23.2668C91.44 24.2363 91.1361 25.1406 90.6676 25.9539C89.6987 27.6361 88.094 28.816 84.8284 29.7046C82.2114 30.4167 80.0589 32.3416 78.4155 34.5206C76.8932 36.539 75.8491 38.7216 75.3083 40.2035C75.4244 40.3206 75.5801 40.4764 75.7723 40.6645C76.233 41.1154 76.9019 41.7529 77.732 42.4969C79.3938 43.9864 81.6936 45.8951 84.2556 47.5853C86.8241 49.2798 89.6208 50.7309 92.2797 51.3394C94.928 51.9454 97.3735 51.7044 99.3552 50.1142C101.172 48.6565 103.073 47.305 104.551 45.6598C105.997 44.0513 106.987 42.2125 107 39.8221C106.68 38.0391 106.38 36.521 106.4 34.9212C106.42 33.2853 106.772 31.5842 107.716 29.3869C107.842 29.092 108.258 27.8263 108.713 26.3672C109.162 24.9244 109.631 23.3498 109.862 22.4677C111.112 17.6879 107.828 12.9773 103.132 12.1327Z" fill="#0A2342"/>
<path d="M97.2141 17.3274C97.0453 17.9431 96.5163 18.3346 96.0326 18.202C95.5489 18.0694 95.2936 17.4628 95.4624 16.8471C95.6312 16.2315 96.1602 15.8399 96.6439 15.9726C97.1276 16.1052 97.3829 16.7118 97.2141 17.3274Z" fill="#0A2342"/>
<path d="M103.92 19.2246C103.767 19.8322 103.225 20.2193 102.709 20.0895C102.193 19.9596 101.9 19.3618 102.053 18.7543C102.206 18.1468 102.748 17.7596 103.263 17.8895C103.779 18.0194 104.073 18.6171 103.92 19.2246Z" fill="#0A2342"/>
<path d="M95.874 24.7228C94.3233 24.5855 92.6715 23.0928 92.3344 22.6639C92.0673 22.324 91.9395 21.9007 91.9167 21.8197C91.0988 21.7933 90.3916 21.8918 89.9746 21.8918C89.6308 21.8918 89.4502 21.9776 89.3847 21.3771C89.3004 20.605 89.5893 19.9707 89.9151 19.6714C90.3682 19.2553 91.1416 19.0608 92.0815 19.0608C92.7298 19.0608 93.1771 19.1466 94.1042 19.1466C95.7897 19.1466 96.1268 19.0608 96.8853 18.8892C97.71 18.7027 97.8124 18.6962 98.2338 18.8034C98.908 18.975 99.1608 19.6327 99.2451 19.7471C99.2451 19.7471 99.6665 20.4334 100.425 21.0339C101.183 21.6344 101.689 21.8918 101.436 22.6639C100.004 24.9802 97.8124 24.8944 95.874 24.7228Z" fill="#E6B75C"/>
<path d="M97.6326 18.2706C97.9008 18.2527 98.0987 18.2974 98.3224 18.357C98.8146 18.4881 99.1419 18.8041 99.3468 19.0758C99.4492 19.2116 99.525 19.3413 99.5778 19.4379C99.6028 19.4834 99.6268 19.5296 99.6391 19.5527C99.6432 19.5604 99.6462 19.566 99.6483 19.5699L99.6525 19.5757L99.6654 19.5976C99.6656 19.598 99.6659 19.5985 99.6662 19.5991C99.668 19.6021 99.6714 19.6076 99.6762 19.6153C99.6859 19.6308 99.7015 19.6556 99.7231 19.688C99.7663 19.7529 99.8327 19.8481 99.9208 19.9617C100.098 20.1903 100.358 20.4863 100.688 20.7601C100.837 20.8832 101.064 21.0622 101.196 21.1732C101.351 21.3036 101.515 21.4528 101.649 21.6275C101.79 21.8104 101.906 22.0333 101.95 22.3088C101.994 22.5803 101.958 22.8506 101.875 23.1166L101.852 23.1872L101.815 23.2502C101.028 24.5827 100.009 25.2466 98.9221 25.5362C97.8661 25.8175 96.7636 25.7392 95.8157 25.6514C94.9104 25.5675 94.0268 25.0816 93.3593 24.6036C92.6898 24.1242 92.1524 23.5904 91.9397 23.307C91.7802 23.0947 91.6628 22.8632 91.5802 22.6677C91.3472 22.671 91.1251 22.683 90.9178 22.697C90.6166 22.7173 90.3048 22.7453 90.0758 22.7453C90.0441 22.7453 90.0137 22.7463 89.9742 22.7476C89.9389 22.7487 89.8899 22.7503 89.8406 22.7493C89.7478 22.7473 89.5778 22.7368 89.406 22.6367C89.0266 22.4156 88.9525 21.9667 88.9213 21.6677C88.82 20.6965 89.1584 19.8423 89.6294 19.3893L89.6873 19.3358C90.2945 18.7938 91.2058 18.603 92.1437 18.603C92.4857 18.603 92.7762 18.6268 93.0731 18.6484C93.3711 18.6701 93.6933 18.6911 94.1289 18.6911C94.9498 18.6911 95.4215 18.6691 95.7727 18.6286C96.1184 18.5888 96.3568 18.5304 96.7329 18.4413C97.1239 18.3487 97.3999 18.2861 97.6326 18.2706ZM98.0416 19.554C97.8517 19.5035 97.7925 19.4962 97.7048 19.5021C97.5815 19.5103 97.4024 19.5469 96.9841 19.646C96.6158 19.7332 96.3165 19.807 95.8971 19.8553C95.4833 19.903 94.9623 19.925 94.1289 19.925C93.6547 19.925 93.3024 19.902 92.9943 19.8796C92.6852 19.8571 92.4379 19.8369 92.1437 19.8369C91.2668 19.8369 90.6884 20.0331 90.4054 20.3053C90.2387 20.4655 90.0131 20.9065 90.0703 21.5114C90.0721 21.5114 90.074 21.5114 90.0758 21.5114C90.2561 21.5114 90.496 21.489 90.8448 21.4655C91.1766 21.4431 91.5719 21.4233 92.0002 21.4378C92.4956 21.4545 93.0433 21.5173 93.6014 21.6791L93.7132 21.7128L93.7232 21.7159L93.7329 21.7194C94.5516 22.0101 95.1694 22.3969 96.464 22.4808C97.1222 22.4807 97.7192 22.4774 98.3872 22.3193C98.6993 22.2454 99.0088 22.4552 99.0782 22.7878C99.1475 23.1204 98.9505 23.45 98.6384 23.5239C97.824 23.7167 97.1026 23.7148 96.445 23.7148H96.428L96.411 23.7138C94.9101 23.6197 94.0415 23.1311 93.3756 22.893C93.284 22.8646 93.1921 22.8395 93.1001 22.8173C93.3106 23.0269 93.625 23.3073 94.0051 23.5795C94.6114 24.0136 95.2994 24.365 95.916 24.4221C96.8706 24.5106 97.7949 24.5646 98.6413 24.3392C99.4388 24.1267 100.183 23.6608 100.794 22.6608C100.815 22.5749 100.811 22.532 100.809 22.5154C100.806 22.4989 100.799 22.4682 100.753 22.4088C100.701 22.3412 100.617 22.259 100.478 22.1416C100.315 22.0048 100.201 21.9193 99.9772 21.734C99.5632 21.3909 99.2438 21.0258 99.0281 20.7477C98.9197 20.6079 98.8361 20.4882 98.7785 20.4017C98.7497 20.3584 98.7273 20.3231 98.7114 20.2977C98.7035 20.285 98.6972 20.2747 98.6925 20.267C98.6916 20.2655 98.6907 20.2641 98.6899 20.2627C98.6629 20.2202 98.641 20.1787 98.6316 20.161C98.6119 20.1239 98.5978 20.0967 98.5775 20.0596C98.5399 19.9909 98.4967 19.9186 98.4441 19.8487C98.3388 19.7092 98.2111 19.5992 98.0416 19.554ZM99.6649 19.5969C99.665 19.597 99.6652 19.5971 99.6652 19.5973L99.6654 19.5976L99.6649 19.5969Z" fill="#0A2342"/>
<circle cx="97.7225" cy="21.0839" r="0.239152" fill="#0A2342"/>
<path d="M103.337 31.9018C99.5058 35.6192 100.48 39.2527 101.405 40.8016C105.242 41.5104 113.605 41.5419 116.361 35.9973C116.949 34.6059 117.554 31.0512 115.269 27.9638C114.037 26.3099 113.509 25.1264 110.148 23.8662C110.148 23.8662 109.391 27.3316 107.963 30.2457C107.151 31.9018 104.791 31.7125 103.337 31.9018Z" fill="#C1C8CB"/>
<path d="M110.194 23.1659C112.319 23.7878 116.619 26.6087 117.315 32.5378L117.316 32.5456L117.317 32.5535C117.417 33.6731 117.424 35.1739 116.789 36.7083C116.148 38.2573 114.878 39.7845 112.528 40.99C111.454 41.5411 109.583 41.8516 107.55 41.9854C105.486 42.1212 103.154 42.0802 101.09 41.8718C100.771 41.8396 100.539 41.5577 100.572 41.2422C100.604 40.9267 100.889 40.6971 101.208 40.7293C103.208 40.9311 105.474 40.9709 107.473 40.8394C109.501 40.7059 111.154 40.401 111.994 39.9702C114.122 38.8786 115.187 37.548 115.715 36.2734C116.246 34.9873 116.254 33.7017 116.161 32.6623C115.589 27.8227 112.468 25.2657 110.368 24.5658C110.135 25.0324 109.892 25.7535 109.668 26.4323C109.36 27.3655 108.919 28.3407 108.591 29.3973C108.433 29.9997 108.43 30.338 108.462 30.5651C108.472 30.6328 108.485 30.696 108.502 30.7599C108.868 30.64 109.174 30.5118 109.402 30.3826C109.681 30.2252 110.035 30.3209 110.194 30.5963C110.353 30.8717 110.257 31.2225 109.978 31.3799C109.524 31.6369 108.922 31.854 108.265 32.0276C107.883 32.1283 107.476 32.2165 107.055 32.29C105.627 32.5395 103.999 32.6281 102.719 32.4333C102.403 32.3851 102.185 32.0919 102.234 31.7784C102.283 31.4649 102.579 31.2499 102.896 31.2982C103.996 31.4656 107.069 31.7889 107.568 30.6319C107.775 30.1515 107.527 30.2516 107.802 29.6986C108.132 28.6397 108.421 27.6178 108.735 26.6656C109.058 25.6858 109.551 24.209 109.668 23.6326L109.978 22.9326L110.194 23.1659Z" fill="#0A2342"/>
</g>
<path d="M19.8003 16.4434C20.8594 16.4435 21.6768 17.0213 22.2554 18.0684C22.8432 19.1322 23.1567 20.6468 23.1567 22.3721C23.1567 24.072 22.743 25.5869 22.0991 26.6602C21.4493 27.7433 20.6207 28.3007 19.8003 28.3008C18.9798 28.3008 18.1514 27.7434 17.5015 26.6602C16.8576 25.5869 16.4429 24.0721 16.4429 22.3721C16.4429 20.6467 16.7573 19.1322 17.3452 18.0684C17.9239 17.0212 18.741 16.4434 19.8003 16.4434Z" fill="white" stroke="black"/>
<path d="M26.4861 16.4434C27.5452 16.4435 28.3626 17.0213 28.9412 18.0684C29.5289 19.1322 29.8425 20.6468 29.8425 22.3721C29.8425 24.072 29.4287 25.5869 28.7849 26.6602C28.135 27.7433 27.3065 28.3007 26.4861 28.3008C25.6656 28.3008 24.8372 27.7434 24.1873 26.6602C23.5433 25.5869 23.1287 24.0721 23.1287 22.3721C23.1287 20.6467 23.4431 19.1322 24.031 18.0684C24.6097 17.0212 25.4268 16.4434 26.4861 16.4434Z" fill="white" stroke="black"/>
<circle cx="21.0857" cy="19.5435" r="2.05714" fill="black"/>
<circle cx="27.7715" cy="19.5435" r="2.05714" fill="black"/>
<path d="M57.5672 5.81769C57.5508 5.94935 57.5425 6.05632 57.5425 6.1386C57.5425 6.22089 57.5425 6.29495 57.5425 6.36077V7.6938C57.5425 7.94066 57.5425 8.19575 57.5425 8.45906C57.5425 8.72237 57.5508 8.99392 57.5672 9.27369V10.8783C57.5508 11.158 57.5425 11.4049 57.5425 11.6188C57.5425 11.8328 57.5261 12.0467 57.4932 12.2607C57.4438 12.7215 57.2874 13.0917 57.0241 13.3715C56.7773 13.6513 56.4152 13.8241 55.938 13.8899C55.7898 13.9228 55.65 13.9475 55.5183 13.964C55.4031 13.964 55.2797 13.964 55.148 13.964H54.4074C54.2593 13.964 54.0948 13.9722 53.9137 13.9887C53.7327 13.9887 53.5105 13.9887 53.2472 13.9887C52.9839 13.9887 52.7206 13.9887 52.4573 13.9887C52.194 13.9887 51.9306 13.9804 51.6673 13.964H45.0762C44.8952 13.964 44.7142 13.964 44.5331 13.964C44.3686 13.9475 44.2122 13.9228 44.0641 13.8899C43.8831 13.8899 43.7103 13.8652 43.5457 13.8159C43.3811 13.75 43.2413 13.6595 43.1261 13.5443C42.9615 13.4127 42.8134 13.2069 42.6817 12.9272C42.6324 12.7955 42.583 12.6639 42.5336 12.5322C42.5007 12.4005 42.476 12.2689 42.4595 12.1372C42.4266 12.0385 42.3937 11.9233 42.3608 11.7916C42.3443 11.66 42.3361 11.5448 42.3361 11.446V6.58295C42.3361 6.43483 42.3197 6.27849 42.2868 6.11392C42.2538 5.93289 42.2374 5.76832 42.2374 5.6202C42.2209 5.43917 42.2209 5.2746 42.2374 5.12649C42.2538 4.96192 42.3032 4.79735 42.3855 4.63277C42.4184 4.43529 42.4678 4.27072 42.5336 4.13906C42.5994 3.99095 42.6899 3.90043 42.8051 3.86752C42.8874 3.78523 43.0109 3.72763 43.1754 3.69472C43.34 3.6618 43.521 3.62889 43.7185 3.59597C43.8502 3.59597 43.9983 3.61243 44.1629 3.64535C44.3274 3.67826 44.4838 3.71117 44.6319 3.74409C45.0269 3.87575 45.2326 4.08969 45.249 4.38592V5.47209C45.249 5.6202 45.249 5.76009 45.249 5.89175C45.2655 6.00695 45.2737 6.12215 45.2737 6.23735C45.2737 6.369 45.282 6.49243 45.2984 6.60763C45.3313 6.72283 45.4383 6.78043 45.6193 6.78043H54.2593C54.2922 6.78043 54.3416 6.7722 54.4074 6.75575C54.4897 6.73929 54.5638 6.72283 54.6296 6.70637V6.36077C54.6625 6.22912 54.679 6.11392 54.679 6.01517C54.679 5.91643 54.679 5.81769 54.679 5.71895V4.68215C54.679 4.53403 54.6872 4.39415 54.7037 4.26249C54.7366 4.11437 54.7942 3.99917 54.8765 3.91689C54.9258 3.8346 54.9999 3.76877 55.0986 3.7194C55.2138 3.67003 55.3455 3.62889 55.4936 3.59597C55.5759 3.57952 55.724 3.57129 55.938 3.57129H56.4317C56.6127 3.57129 56.769 3.6042 56.9007 3.67003C57.2463 3.78523 57.4438 3.99095 57.4932 4.28717C57.5261 4.41883 57.5425 4.55049 57.5425 4.68215C57.5425 4.79735 57.5508 4.91255 57.5672 5.02775V5.81769ZM57.2216 15.9882C57.3862 15.9882 57.5343 16.0047 57.666 16.0376C57.7976 16.0705 57.9293 16.1199 58.0609 16.1857C58.2749 16.268 58.4724 16.4161 58.6534 16.63C58.785 16.8111 58.8509 17.0908 58.8509 17.4693C58.8509 17.6833 58.8262 17.8643 58.7768 18.0124C58.7274 18.1441 58.6122 18.2757 58.4312 18.4074C58.1679 18.6213 57.8552 18.753 57.4932 18.8024C57.0488 18.9011 56.6292 18.9505 56.2342 18.9505C56.0202 18.9505 55.8228 18.9669 55.6417 18.9999C55.4772 19.0163 55.329 19.0245 55.1974 19.0245H51.3711C51.404 19.2549 51.4205 19.5429 51.4205 19.8885C51.4369 20.2177 51.4452 20.4728 51.4452 20.6538C51.4616 20.9994 51.4369 21.4026 51.3711 21.8634C51.3217 22.1596 51.2312 22.4394 51.0996 22.7027C51.0502 22.9825 50.8774 23.2211 50.5812 23.4186C50.4495 23.5173 50.3014 23.5832 50.1368 23.6161C49.9887 23.6655 49.8406 23.6901 49.6925 23.6901C49.3304 23.6901 49.026 23.5996 48.7791 23.4186C48.5487 23.3199 48.3923 23.1388 48.3101 22.8755C48.2442 22.7274 48.1866 22.604 48.1373 22.5052C48.1044 22.39 48.0879 22.2748 48.0879 22.1596C48.055 22.0773 48.0385 21.9868 48.0385 21.8881C48.0385 21.7893 48.0385 21.6906 48.0385 21.5919V19.0245H42.8051C42.5912 19.0245 42.3937 19.0081 42.2127 18.9752C42.0317 18.9423 41.8671 18.9093 41.719 18.8764C41.3405 18.7448 41.0607 18.5308 40.8797 18.2346C40.7645 18.0865 40.6904 17.9384 40.6575 17.7903C40.6246 17.6421 40.6081 17.4776 40.6081 17.2965C40.6081 16.9839 40.7316 16.7123 40.9784 16.4819C41.1101 16.3503 41.2582 16.2515 41.4228 16.1857C41.5544 16.1363 41.6531 16.1034 41.719 16.0869C41.8013 16.0705 41.9 16.0623 42.0152 16.0623C42.114 16.0293 42.2045 16.0129 42.2868 16.0129C42.369 16.0129 42.4513 16.0129 42.5336 16.0129H42.7311L56.3823 15.9388C56.514 15.9388 56.6538 15.9388 56.802 15.9388C56.9501 15.9388 57.09 15.9553 57.2216 15.9882ZM54.5802 10.7055C54.6132 10.6561 54.6296 10.5327 54.6296 10.3352C54.6296 10.2529 54.6296 10.1788 54.6296 10.113C54.6296 10.0472 54.6132 9.98957 54.5802 9.9402C54.5802 9.79209 54.572 9.70157 54.5556 9.66866C54.4733 9.58637 54.391 9.537 54.3087 9.52055C54.2429 9.48763 54.1688 9.45472 54.0865 9.4218H48.6804L47.6682 9.39712H47.1498C47.0676 9.39712 46.9853 9.39712 46.903 9.39712C46.8372 9.39712 46.7466 9.38066 46.6314 9.34774C46.5162 9.34774 46.401 9.35597 46.2858 9.37243C46.1871 9.37243 46.0884 9.37243 45.9896 9.37243C45.7921 9.37243 45.6193 9.4218 45.4712 9.52055C45.4218 9.56992 45.3725 9.63575 45.3231 9.71803C45.2902 9.80032 45.2902 9.90729 45.3231 10.0389V10.8289C45.356 10.8947 45.3725 10.9359 45.3725 10.9523V10.977C45.3725 11.0922 45.4383 11.1992 45.57 11.2979C45.6522 11.3308 45.7181 11.3637 45.7674 11.3967C45.8333 11.4131 45.9073 11.4213 45.9896 11.4213C46.1542 11.4543 46.3187 11.4543 46.4833 11.4213H52.8276C52.8769 11.4213 52.9345 11.4296 53.0004 11.446C53.0826 11.446 53.1649 11.4378 53.2472 11.4213H53.6916C53.7245 11.4213 53.7574 11.4213 53.7903 11.4213C53.8232 11.4213 53.8808 11.4296 53.9631 11.446H54.2593C54.2922 11.4296 54.3334 11.4213 54.3828 11.4213C54.4321 11.4049 54.4733 11.3802 54.5062 11.3473C54.5391 11.2815 54.5556 11.2321 54.5556 11.1992C54.572 11.1663 54.5802 11.1087 54.5802 11.0264V10.7055Z" fill="#FF7340"/>
<path d="M60.3147 14.7045C60.0843 14.6058 59.9197 14.4165 59.8209 14.1368C59.6893 13.8076 59.6646 13.4785 59.7469 13.1493C59.8456 12.8202 59.9937 12.5075 60.1912 12.2113C60.3887 11.9151 60.6109 11.6353 60.8577 11.372C61.1211 11.1087 61.3432 10.8618 61.5243 10.6314C61.804 10.2858 62.0756 9.9402 62.3389 9.5946C62.6022 9.249 62.8737 8.89517 63.1535 8.53312C63.351 8.25335 63.5567 7.9242 63.7706 7.54569C63.9846 7.16717 64.108 6.79689 64.1409 6.43483C64.1409 6.33609 64.1492 6.21266 64.1656 6.06455C64.1821 5.89997 64.1903 5.7354 64.1903 5.57083C64.2068 5.3898 64.2232 5.22523 64.2397 5.07712C64.2561 4.929 64.2808 4.80557 64.3137 4.70683C64.4125 4.37769 64.5688 4.15552 64.7828 4.04032C65.0132 3.90866 65.3588 3.84283 65.8196 3.84283C66.0829 3.84283 66.3791 3.8922 66.7083 3.99095C67.0374 4.07323 67.2596 4.24603 67.3748 4.50935C67.49 4.80557 67.5229 5.15117 67.4735 5.54615C67.4406 5.92466 67.4735 6.27026 67.5723 6.58295C67.6545 6.8298 67.778 7.08489 67.9425 7.3482C68.1071 7.61152 68.2799 7.87483 68.4609 8.13815C68.7736 8.58249 69.0863 9.06797 69.399 9.5946C69.7117 10.1048 69.9997 10.5409 70.263 10.9029C70.5263 11.2485 70.7814 11.6106 71.0283 11.9891C71.2751 12.3512 71.4397 12.7461 71.522 13.174C71.6043 13.5361 71.5631 13.8405 71.3985 14.0874C71.2504 14.3178 71.0447 14.4906 70.7814 14.6058C70.5181 14.7045 70.2301 14.7292 69.9174 14.6799C69.6047 14.614 69.3332 14.4659 69.1028 14.2355C68.4939 13.6101 67.9425 12.9436 67.4488 12.236C66.9551 11.5119 66.4449 10.8042 65.9183 10.113C65.9183 10.113 65.8443 10.1953 65.6961 10.3599C65.548 10.5244 65.367 10.7384 65.1531 11.0017C64.9391 11.265 64.7005 11.553 64.4372 11.8657C64.1739 12.1784 63.927 12.4746 63.6966 12.7544C63.4662 13.0341 63.2605 13.281 63.0795 13.4949C62.9149 13.6924 62.8161 13.8159 62.7832 13.8652C62.6022 14.0792 62.3965 14.2684 62.1661 14.433C61.9357 14.5976 61.6806 14.7128 61.4008 14.7786C61.2198 14.8115 61.0305 14.828 60.8331 14.828C60.652 14.828 60.4792 14.7868 60.3147 14.7045ZM64.1163 23.2952C63.4415 23.2952 62.8984 23.1471 62.487 22.8508C62.0756 22.5711 61.8699 22.2419 61.8699 21.8634V18.3087C61.8369 17.9466 61.8369 17.5763 61.8699 17.1978C61.9028 16.8522 62.0344 16.5724 62.2648 16.3585C62.5117 16.1445 62.8244 16.0376 63.2029 16.0376C63.2852 16.0376 63.4333 16.0458 63.6472 16.0623C63.8612 16.0623 64.0093 16.0787 64.0916 16.1116C64.3055 16.1775 64.4701 16.2762 64.5853 16.4079C64.7169 16.5395 64.8157 16.6959 64.8815 16.8769C64.9473 17.0415 64.9885 17.2225 65.0049 17.42C65.0214 17.601 65.0378 17.782 65.0543 17.9631C65.0543 18.0289 65.0543 18.1852 65.0543 18.4321C65.0708 18.6625 65.079 18.9176 65.079 19.1973C65.0955 19.4607 65.1037 19.7075 65.1037 19.9379C65.1201 20.1683 65.1366 20.3082 65.1531 20.3576C65.2024 20.374 65.3341 20.3987 65.548 20.4316C65.7784 20.4481 66.1981 20.4563 66.807 20.4563C67.3336 20.4563 67.6545 20.4481 67.7697 20.4316C67.9014 20.4152 67.9755 20.4069 67.9919 20.4069H76.0641C76.0641 20.4069 76.1135 20.4234 76.2122 20.4563C76.3275 20.4892 76.4509 20.5468 76.5825 20.6291C76.7142 20.6949 76.8376 20.7937 76.9528 20.9253C77.068 21.0405 77.1421 21.1804 77.175 21.345C77.2573 21.9704 77.1503 22.4559 76.8541 22.8015C76.6566 23.0319 76.4426 23.1717 76.2122 23.2211C75.9818 23.2705 75.8584 23.2952 75.842 23.2952H64.1163ZM76.6566 11.3967V13.964C76.6401 14.145 76.6155 14.3343 76.5825 14.5317C76.5496 14.7128 76.4838 14.8938 76.385 15.0748C76.2699 15.2888 76.13 15.4451 75.9654 15.5439C75.7021 15.7249 75.4223 15.8154 75.1261 15.8154C74.8792 15.8154 74.6488 15.7496 74.4349 15.6179C74.2703 15.5192 74.1386 15.3957 74.0399 15.2476C73.9412 15.0995 73.8589 14.9596 73.7931 14.828C73.7437 14.6963 73.7108 14.5811 73.6943 14.4824C73.6779 14.3672 73.6696 14.3096 73.6696 14.3096V5.64489C73.6696 5.5626 73.6779 5.38157 73.6943 5.1018C73.7272 4.80557 73.7931 4.55872 73.8918 4.36123C74.0564 4.01563 74.3937 3.81815 74.9039 3.76877C75.1837 3.73586 75.447 3.75232 75.6939 3.81815C75.9407 3.88397 76.13 3.99095 76.2616 4.13906C76.3604 4.27072 76.4262 4.40237 76.4591 4.53403C76.5085 4.64923 76.5496 4.77266 76.5825 4.90432C76.6319 5.06889 76.6566 5.24169 76.6566 5.42272C76.673 5.60375 76.673 5.78477 76.6566 5.9658V8.63186C76.7224 8.63186 76.8459 8.64009 77.0269 8.65655C77.2079 8.673 77.3972 8.68946 77.5947 8.70592C77.8086 8.70592 78.0061 8.71415 78.1871 8.7306C78.3681 8.74706 78.4916 8.76352 78.5574 8.77997C78.8865 8.8458 79.1169 8.94455 79.2486 9.0762C79.3803 9.1914 79.4708 9.33952 79.5201 9.52055C79.5531 9.70157 79.5695 9.91552 79.5695 10.1624C79.5695 10.3928 79.5201 10.5903 79.4214 10.7548C79.2239 11.084 78.9277 11.2732 78.5327 11.3226C78.1377 11.372 77.7016 11.3967 77.2244 11.3967H76.6566Z" fill="#FF7340"/>
<path d="M46.794 45.3909C46.9338 45.2511 47.0621 45.0879 47.1786 44.9013C47.3185 44.6915 47.4234 44.5516 47.4934 44.4817V36.5781C47.3768 36.6248 47.2719 36.6364 47.1786 36.6131C47.0854 36.5898 46.9805 36.5781 46.8639 36.5781H45.9197C45.1037 36.5781 44.3926 36.5665 43.7864 36.5432C43.2036 36.5199 42.8305 36.4849 42.6673 36.4383C42.2477 36.345 41.8863 36.1935 41.5832 35.9836C41.3034 35.7505 41.0936 35.4241 40.9537 35.0044C40.9071 34.8412 40.8721 34.6897 40.8488 34.5498C40.8255 34.4099 40.8372 34.2467 40.8838 34.0602C40.8838 33.8271 41.0004 33.5356 41.2335 33.1859C41.3034 33.0693 41.4083 32.9644 41.5482 32.8712C41.6881 32.7779 41.828 32.6963 41.9679 32.6264C42.1078 32.5098 42.2477 32.4399 42.3876 32.4165C42.5274 32.3699 42.6673 32.3233 42.8072 32.2767H47.4234C47.4234 32.0202 47.4351 31.6821 47.4584 31.2625C47.4817 30.8195 47.4934 30.4931 47.4934 30.2833C47.54 29.9802 47.61 29.7121 47.7032 29.4789C47.7965 29.2225 47.9014 28.9893 48.018 28.7795C48.2977 28.3365 48.7057 28.0451 49.242 27.9052C49.4984 27.7887 49.7549 27.742 50.0113 27.7653C50.2911 27.7887 50.5592 27.8586 50.8157 27.9752C51.0022 28.0451 51.1654 28.15 51.3053 28.2899C51.4685 28.4065 51.585 28.5464 51.655 28.7096C51.9348 29.036 52.1096 29.3624 52.1796 29.6888C52.2262 29.8753 52.2612 30.0735 52.2845 30.2833C52.3078 30.4931 52.3194 30.7029 52.3194 30.9128V32.2767H54.6975C55.1638 32.2767 55.5834 32.2883 55.9565 32.3116C56.3295 32.3349 56.6792 32.3699 57.0056 32.4165C57.332 32.4865 57.6234 32.6147 57.8799 32.8012C58.1597 32.9644 58.3928 33.1976 58.5793 33.5007C58.7658 33.8037 58.8591 34.1301 58.8591 34.4799C58.929 34.7363 58.8824 35.0277 58.7192 35.3541C58.4394 35.8904 57.8916 36.2517 57.0756 36.4383C56.8191 36.4849 56.5277 36.5082 56.2013 36.5082C55.8982 36.5082 55.5718 36.5315 55.2221 36.5781C54.849 36.5781 54.4177 36.5898 53.9281 36.6131C53.4385 36.6364 52.9023 36.6248 52.3194 36.5781C52.3194 36.7647 52.3078 36.9861 52.2845 37.2426C52.2845 37.4991 52.2845 37.7555 52.2845 38.012C52.2845 38.2684 52.2845 38.5132 52.2845 38.7464C52.2845 38.9562 52.2961 39.1311 52.3194 39.2709V43.1178C52.3194 43.2344 52.3078 43.3509 52.2845 43.4675C52.2612 43.5608 52.2728 43.6773 52.3194 43.8172V44.3768C52.436 44.47 52.5409 44.5983 52.6342 44.7615C52.7508 44.9013 52.9023 45.0645 53.0888 45.2511C53.252 45.3909 53.3802 45.5308 53.4735 45.6707C53.5901 45.8106 53.7066 45.9388 53.8232 46.0554C53.9398 46.1953 54.0447 46.3352 54.138 46.4751C54.2545 46.6149 54.3828 46.7548 54.5226 46.8947C54.6392 47.0113 54.7558 47.1512 54.8724 47.3144C54.9889 47.4776 55.1172 47.6291 55.257 47.769C55.327 47.8856 55.3969 47.9905 55.4669 48.0837C55.5368 48.177 55.6068 48.2586 55.6767 48.3285C55.8166 48.5384 55.9332 48.7365 56.0264 48.9231C56.2596 49.2028 56.481 49.4943 56.6909 49.7973C56.9007 50.0771 57.1105 50.4035 57.3204 50.7765C57.5768 51.1029 57.775 51.441 57.9149 51.7907C58.0781 52.1171 58.1946 52.4435 58.2646 52.7699C58.3345 53.0963 58.3345 53.4344 58.2646 53.7841C58.1946 54.1338 58.0314 54.4485 57.775 54.7283C57.4486 55.0081 57.0173 55.148 56.481 55.148C56.2246 55.148 55.9798 55.1247 55.7466 55.078C55.5368 55.0081 55.3037 54.9148 55.0472 54.7983C54.8141 54.6584 54.6042 54.5185 54.4177 54.3786C54.2545 54.2154 54.0797 54.0639 53.8932 53.924C53.6833 53.7141 53.4852 53.4927 53.2986 53.2595C53.1121 53.0031 52.9256 52.7699 52.7391 52.5601C52.5526 52.3503 52.3661 52.1288 52.1796 51.8956C52.0164 51.6392 51.8415 51.3827 51.655 51.1263C51.3985 50.8698 51.1188 50.5317 50.8157 50.1121C50.6758 49.9023 50.5126 49.7274 50.3261 49.5875C50.1629 49.4243 50.0113 49.2728 49.8714 49.1329C49.7316 49.3194 49.5917 49.5059 49.4518 49.6924C49.3119 49.8556 49.172 50.0305 49.0321 50.217C48.8689 50.4035 48.7174 50.5784 48.5775 50.7416C48.4376 50.9048 48.2977 51.0796 48.1578 51.2661C48.018 51.4993 47.8548 51.7324 47.6682 51.9656C47.505 52.1987 47.3302 52.4202 47.1437 52.63C47.0038 52.8632 46.8406 53.0963 46.6541 53.3295C46.4909 53.5626 46.2927 53.7841 46.0596 53.9939C45.5933 54.4602 45.1503 54.7866 44.7306 54.9731C44.3343 55.1363 43.9263 55.2179 43.5066 55.2179C43.3901 55.2179 43.2735 55.2179 43.1569 55.2179C43.0637 55.2179 42.9588 55.1946 42.8422 55.148C42.3526 55.0081 41.9912 54.6933 41.7581 54.2037C41.5949 53.8307 41.5482 53.4577 41.6182 53.0847C41.6648 52.8515 41.7114 52.6417 41.7581 52.4552C41.8047 52.2453 41.8863 52.0705 42.0029 51.9306C42.0728 51.7441 42.1544 51.5692 42.2477 51.406C42.3409 51.2195 42.4458 51.033 42.5624 50.8465C42.679 50.7066 42.7839 50.5551 42.8772 50.3919C42.9937 50.2287 43.1336 50.0655 43.2968 49.9023C43.3667 49.8323 43.4367 49.7507 43.5066 49.6575C43.5766 49.5642 43.6465 49.4826 43.7165 49.4127L44.1361 48.7832C44.2061 48.62 44.2877 48.4917 44.3809 48.3985C44.4742 48.2819 44.6141 48.0954 44.8006 47.8389C44.9871 47.6291 45.1619 47.4193 45.3251 47.2095C45.4883 46.9996 45.6399 46.8015 45.7798 46.6149C45.9663 46.4051 46.1412 46.1953 46.3044 45.9855C46.4909 45.7756 46.6541 45.5775 46.794 45.3909ZM65.9233 54.2037C65.8767 54.3436 65.8534 54.4835 65.8534 54.6234C65.8534 54.7633 65.8301 54.9032 65.7834 55.0431C65.7834 55.4161 65.6785 55.8124 65.4687 56.2321C65.2822 56.6517 65.0257 56.9548 64.6993 57.1413C64.4429 57.2579 64.1631 57.3279 63.86 57.3512C63.5802 57.3978 63.3121 57.3978 63.0557 57.3512C62.5428 57.2346 62.1697 56.9781 61.9366 56.5818C61.7034 56.2088 61.5519 55.7891 61.482 55.3228C61.4353 55.1363 61.412 54.9615 61.412 54.7983C61.412 54.6351 61.3887 54.4602 61.3421 54.2737C61.3421 53.9473 61.3537 53.5859 61.377 53.1896C61.4004 52.7699 61.412 52.3619 61.412 51.9656C61.3654 51.1029 61.3537 50.2636 61.377 49.4476C61.4004 48.6083 61.412 47.7457 61.412 46.8597C61.412 45.8572 61.4004 44.8547 61.377 43.8522C61.3537 42.8264 61.3654 41.8005 61.412 40.7747V31.1576C61.4586 30.9711 61.4936 30.8079 61.5169 30.668C61.5402 30.5281 61.5752 30.3882 61.6218 30.2483C61.6918 30.1084 61.7501 29.9802 61.7967 29.8636C61.8433 29.7471 61.9249 29.6538 62.0415 29.5839C62.1581 29.4673 62.2863 29.374 62.4262 29.3041C62.5661 29.2108 62.706 29.1642 62.8458 29.1642C62.9857 29.1176 63.1256 29.0826 63.2655 29.0593C63.4054 29.036 63.5453 29.0243 63.6852 29.0243C64.1048 29.0243 64.4662 29.1409 64.7693 29.374C65.119 29.5839 65.3638 29.8986 65.5037 30.3183C65.7368 30.7845 65.8534 31.2858 65.8534 31.822C65.9 32.5448 65.9233 33.2559 65.9233 33.9553C65.9233 34.6314 65.9233 35.3308 65.9233 36.0536C65.9933 37.0328 65.9933 38.012 65.9233 38.9912V54.2037Z" fill="#0A2342"/>
<path d="M77.1773 52.3503C77.1773 52.0005 77.1773 51.6741 77.1773 51.3711C77.1773 51.068 77.1773 50.7066 77.1773 50.2869C77.1773 49.8673 77.1656 49.366 77.1423 48.7832C77.1423 48.2003 77.1423 47.4426 77.1423 46.51C77.1423 45.5775 77.1423 44.4467 77.1423 43.1178C77.1423 41.7889 77.1423 40.1802 77.1423 38.2917C77.1423 37.8954 77.1423 37.5224 77.1423 37.1727C77.1423 36.7996 77.119 36.4149 77.0724 36.0186C77.0024 35.5989 76.8975 35.3308 76.7576 35.2143C76.6178 35.0977 76.338 35.0394 75.9183 35.0394C74.8925 35.0161 73.9832 35.0161 73.1906 35.0394C72.3979 35.0394 71.5469 35.0394 70.6376 35.0394C69.8216 35.0394 69.2155 34.8296 68.8191 34.4099C68.4228 33.9903 68.2246 33.4424 68.2246 32.7663C68.2246 32.0901 68.3761 31.5772 68.6792 31.2275C69.0056 30.8545 69.4719 30.6097 70.0781 30.4931C70.5444 30.3765 70.9874 30.3066 71.407 30.2833C71.8267 30.26 72.2929 30.2483 72.8059 30.2483H77.8068C77.9234 30.2483 78.0399 30.26 78.1565 30.2833C78.2964 30.2833 78.4246 30.2833 78.5412 30.2833C78.8443 30.3066 79.159 30.3416 79.4854 30.3882C79.8351 30.4348 80.1499 30.5164 80.4296 30.633C80.6161 30.7029 80.791 30.7962 80.9542 30.9128C81.1407 31.0293 81.2923 31.1692 81.4088 31.3324C81.642 31.6588 81.7702 31.9619 81.7935 32.2417C81.8168 32.5215 81.8518 32.8595 81.8984 33.2559C81.9451 33.8853 81.9684 34.5265 81.9684 35.1793C81.9684 35.8321 81.9684 36.4849 81.9684 37.1377V39.6906H85.3956V32.6264C85.3956 32.3233 85.3956 32.0202 85.3956 31.7171C85.3956 31.3907 85.4305 31.076 85.5005 30.7729C85.5471 30.6563 85.5821 30.5514 85.6054 30.4581C85.652 30.3649 85.6987 30.26 85.7453 30.1434C85.8852 29.9103 86.0251 29.7354 86.165 29.6188C86.3048 29.4789 86.503 29.3624 86.7595 29.2691C86.876 29.2225 86.9926 29.1992 87.1092 29.1992C87.2491 29.1759 87.3773 29.1642 87.4939 29.1642C88.2632 29.1642 88.8461 29.5139 89.2424 30.2133C89.3357 30.3532 89.394 30.5514 89.4173 30.8079C89.4639 31.0643 89.4989 31.3324 89.5222 31.6122C89.5455 31.8687 89.5572 32.1018 89.5572 32.3116C89.5572 32.4981 89.5572 32.6147 89.5572 32.6613V52.665C89.5572 53.2479 89.5339 53.7141 89.4872 54.0639C89.4639 54.4136 89.359 54.8565 89.1725 55.3928C89.0559 55.7425 88.8578 56.0339 88.578 56.2671C88.2982 56.5002 87.9019 56.6168 87.389 56.6168C87.2491 56.6168 87.0742 56.5935 86.8644 56.5468C86.6545 56.5235 86.4913 56.4652 86.3748 56.372C86.1416 56.2321 85.9551 56.0106 85.8152 55.7075C85.6987 55.3811 85.6054 55.0431 85.5355 54.6933C85.4655 54.3436 85.4189 54.0056 85.3956 53.6792C85.3956 53.3528 85.3956 53.0963 85.3956 52.9098V44.2369L81.9684 44.2019V48.3285C81.9684 48.3519 81.9684 48.5267 81.9684 48.8531C81.9917 49.1795 82.0033 49.5759 82.0033 50.0421C82.0033 50.5084 82.0033 50.998 82.0033 51.5109C82.0033 52.0005 81.9917 52.4319 81.9684 52.8049C81.8984 53.6442 81.6303 54.3203 81.164 54.8332C80.7211 55.3461 80.0916 55.6026 79.2756 55.6026C78.8559 55.6026 78.5062 55.4977 78.2264 55.2879C77.9467 55.078 77.7252 54.8099 77.562 54.4835C77.4221 54.1571 77.3172 53.8074 77.2472 53.4344C77.2006 53.038 77.1773 52.6767 77.1773 52.3503ZM95.3624 55.6376C95.2225 55.9407 95.0011 56.1971 94.698 56.4069C94.2317 56.71 93.7188 56.7916 93.1592 56.6517C92.8095 56.5818 92.5181 56.4303 92.285 56.1971C92.0751 55.9873 91.9119 55.7425 91.7954 55.4627C91.6788 55.1829 91.5972 54.8799 91.5505 54.5535C91.5039 54.2271 91.4806 53.9123 91.4806 53.6092V33.0111C91.4806 32.7546 91.4806 32.4632 91.4806 32.1368C91.4806 31.7871 91.5039 31.4607 91.5505 31.1576C91.5972 30.8312 91.6555 30.5281 91.7254 30.2483C91.8187 29.9685 91.9469 29.7471 92.1101 29.5839C92.3666 29.3507 92.6347 29.2108 92.9144 29.1642C93.1942 29.0943 93.4973 29.0593 93.8237 29.0593C94.22 29.0593 94.5464 29.1759 94.8029 29.409C95.0593 29.6188 95.2575 29.9103 95.3974 30.2833C95.6072 30.7729 95.7238 31.2741 95.7471 31.7871C95.7704 32.3 95.7938 32.8245 95.8171 33.3608V33.5356C95.8637 35.3075 95.8754 37.0677 95.852 38.8163C95.8287 40.5649 95.8171 42.2668 95.8171 43.9221V52.3153C95.8171 52.9215 95.7938 53.5043 95.7471 54.0639C95.7238 54.6234 95.5956 55.148 95.3624 55.6376Z" fill="#0A2342"/>
<path d="M101.1 56.6867C101.077 56.6867 101.042 56.6634 100.996 56.6168C100.762 56.4303 100.599 56.1621 100.506 55.8124C100.436 55.4394 100.401 55.1247 100.401 54.8682C100.378 54.4485 100.343 54.0289 100.296 53.6092C100.273 53.1896 100.261 52.7816 100.261 52.3852C100.261 51.7791 100.261 51.1845 100.261 50.6017C100.261 50.0188 100.319 49.436 100.436 48.8531C100.506 48.4801 100.623 48.1887 100.786 47.9788C100.949 47.7457 101.205 47.5592 101.555 47.4193C102.208 47.1628 102.861 47.0346 103.514 47.0346H119.635C120.078 47.0579 120.533 47.0929 120.999 47.1395C121.466 47.1861 121.908 47.3027 122.328 47.4892C122.794 47.6757 123.098 47.9905 123.237 48.4335C123.401 48.8531 123.506 49.2961 123.552 49.7624C123.575 50.1587 123.587 50.625 123.587 51.1612C123.61 51.6741 123.61 52.1987 123.587 52.7349C123.564 53.2712 123.529 53.8074 123.482 54.3436C123.436 54.8565 123.354 55.3228 123.237 55.7425C123.167 55.9989 123.086 56.2204 122.993 56.4069C122.899 56.6168 122.713 56.7683 122.433 56.8616C122.177 56.9548 121.908 57.0131 121.629 57.0364C121.372 57.0597 121.116 57.0714 120.859 57.0714L102.989 57.0015C102.686 56.9781 102.359 56.9665 102.01 56.9665C101.66 56.9665 101.357 56.8732 101.1 56.6867ZM111.032 29.8636C112.431 30.6097 113.422 31.6355 114.005 32.9411C114.611 34.2467 114.844 35.8088 114.704 37.6273C114.564 39.9587 113.9 41.6956 112.711 42.838C111.545 43.9804 109.75 44.5516 107.325 44.5516C106.696 44.5516 106.113 44.5633 105.577 44.5866C105.064 44.5866 104.574 44.5516 104.108 44.4817C103.642 44.4117 103.164 44.2952 102.674 44.132C102.185 43.9455 101.66 43.6657 101.1 43.2927C100.005 42.5699 99.247 41.6257 98.8273 40.46C98.431 39.2943 98.2328 38.0936 98.2328 36.8579C98.2328 35.6223 98.4543 34.4682 98.8973 33.3957C99.3403 32.3 100.063 31.3674 101.066 30.598C101.882 29.9452 102.791 29.4673 103.793 29.1642C104.819 28.8611 105.845 28.7562 106.871 28.8495C107.337 28.8961 107.733 28.9427 108.06 28.9893C108.41 29.0127 108.736 29.0593 109.039 29.1292C109.342 29.1992 109.645 29.2924 109.948 29.409C110.251 29.5256 110.613 29.6771 111.032 29.8636ZM123.762 42.7681C123.762 42.7681 123.75 42.8497 123.727 43.0129C123.704 43.1761 123.657 43.3626 123.587 43.5724C123.517 43.7823 123.412 44.0037 123.272 44.2369C123.132 44.4467 122.946 44.6216 122.713 44.7615C122.386 44.948 122.06 45.0412 121.734 45.0412C121.337 45.0412 120.953 44.913 120.58 44.6565C120.323 44.47 120.125 44.2252 119.985 43.9221C119.799 43.5724 119.67 43.1877 119.6 42.7681C119.554 42.3484 119.519 41.9171 119.495 41.4741C119.495 41.0312 119.507 40.5999 119.53 40.1802C119.554 39.7372 119.565 39.3176 119.565 38.9212C119.589 37.9187 119.6 36.9279 119.6 35.9487C119.6 34.9461 119.6 33.9553 119.6 32.9761V32.5215C119.577 32.265 119.565 31.9969 119.565 31.7171C119.589 31.414 119.635 31.1343 119.705 30.8778C119.799 30.5281 120.008 30.1551 120.335 29.7587C120.521 29.5256 120.778 29.3624 121.104 29.2691C121.454 29.1525 121.827 29.1176 122.223 29.1642C122.923 29.2808 123.389 29.5839 123.622 30.0735C123.762 30.3765 123.82 30.7496 123.797 31.1925C123.797 31.6355 123.785 31.9036 123.762 31.9969V42.7681ZM110.543 38.012C110.543 37.4991 110.519 37.0211 110.473 36.5781C110.426 36.1119 110.321 35.6922 110.158 35.3192C110.018 34.9228 109.797 34.5731 109.494 34.27C109.191 33.9669 108.794 33.7221 108.305 33.5356C107.768 33.3491 107.186 33.2559 106.556 33.2559C105.927 33.2559 105.332 33.3724 104.772 33.6056C104.213 33.8154 103.723 34.1535 103.304 34.6197C102.884 35.0627 102.616 35.6456 102.499 36.3683C102.429 36.8579 102.429 37.3592 102.499 37.8721C102.593 38.3617 102.767 38.8163 103.024 39.236C103.304 39.6323 103.677 39.9704 104.143 40.2501C104.633 40.5299 105.239 40.7048 105.962 40.7747C106.451 40.8213 106.941 40.8213 107.43 40.7747C107.92 40.7048 108.375 40.5649 108.794 40.3551C109.214 40.1452 109.575 39.8538 109.878 39.4808C110.181 39.0844 110.403 38.5948 110.543 38.012ZM104.423 52.5951C104.423 52.7116 104.423 52.8282 104.423 52.9448C104.446 53.038 104.493 53.108 104.563 53.1546C104.609 53.2012 104.679 53.2362 104.772 53.2595C104.889 53.2595 105.006 53.2595 105.122 53.2595C105.239 53.2595 105.379 53.2479 105.542 53.2245H116.138C116.465 53.2479 116.779 53.2712 117.082 53.2945C117.339 53.3178 117.607 53.3295 117.887 53.3295C118.167 53.3295 118.423 53.3061 118.656 53.2595C118.889 53.2362 119.029 53.1779 119.076 53.0847C119.122 52.9681 119.157 52.8049 119.181 52.5951C119.204 52.4085 119.216 52.1987 119.216 51.9656C119.216 51.7091 119.146 51.4876 119.006 51.3011C118.843 51.1146 118.61 51.0213 118.306 51.0213C118.027 50.998 117.77 50.998 117.537 51.0213H108.165C107.652 50.9747 107.151 50.9631 106.661 50.9864C106.171 50.9864 105.67 50.998 105.157 51.0213C104.971 51.0213 104.819 51.033 104.703 51.0563C104.609 51.0563 104.539 51.1612 104.493 51.3711C104.446 51.5343 104.423 51.6975 104.423 51.8607C104.423 52.0005 104.423 52.1404 104.423 52.2803C104.446 52.3269 104.446 52.3736 104.423 52.4202C104.423 52.4668 104.423 52.5251 104.423 52.5951Z" fill="#0A2342"/>
<path d="M71.0698 60.7614C71.0653 60.7971 71.0631 60.826 71.0631 60.8483C71.0631 60.8706 71.0631 60.8907 71.0631 60.9085V61.2695C71.0631 61.3364 71.0631 61.4055 71.0631 61.4768C71.0631 61.5481 71.0653 61.6216 71.0698 61.6974V62.132C71.0653 62.2077 71.0631 62.2746 71.0631 62.3325C71.0631 62.3905 71.0586 62.4484 71.0497 62.5064C71.0363 62.6312 70.994 62.7315 70.9227 62.8072C70.8558 62.883 70.7578 62.9298 70.6285 62.9476C70.5884 62.9565 70.5505 62.9632 70.5149 62.9677C70.4837 62.9677 70.4502 62.9677 70.4146 62.9677H70.214C70.1739 62.9677 70.1293 62.9699 70.0803 62.9744C70.0313 62.9744 69.9711 62.9744 69.8998 62.9744C69.8285 62.9744 69.7572 62.9744 69.6858 62.9744C69.6145 62.9744 69.5432 62.9721 69.4719 62.9677H67.6868C67.6378 62.9677 67.5888 62.9677 67.5397 62.9677C67.4951 62.9632 67.4528 62.9565 67.4127 62.9476C67.3637 62.9476 67.3169 62.9409 67.2723 62.9276C67.2277 62.9097 67.1898 62.8852 67.1586 62.854C67.1141 62.8184 67.074 62.7627 67.0383 62.6869C67.0249 62.6512 67.0116 62.6156 66.9982 62.5799C66.9893 62.5443 66.9826 62.5086 66.9781 62.4729C66.9692 62.4462 66.9603 62.415 66.9514 62.3793C66.9469 62.3437 66.9447 62.3125 66.9447 62.2857V60.9687C66.9447 60.9285 66.9402 60.8862 66.9313 60.8416C66.9224 60.7926 66.918 60.748 66.918 60.7079C66.9135 60.6589 66.9135 60.6143 66.918 60.5742C66.9224 60.5296 66.9358 60.4851 66.9581 60.4405C66.967 60.387 66.9804 60.3424 66.9982 60.3068C67.016 60.2667 67.0405 60.2421 67.0717 60.2332C67.094 60.2109 67.1274 60.1953 67.172 60.1864C67.2166 60.1775 67.2656 60.1686 67.3191 60.1597C67.3548 60.1597 67.3949 60.1641 67.4394 60.1731C67.484 60.182 67.5264 60.1909 67.5665 60.1998C67.6734 60.2355 67.7291 60.2934 67.7336 60.3736V60.6678C67.7336 60.7079 67.7336 60.7458 67.7336 60.7815C67.7381 60.8127 67.7403 60.8439 67.7403 60.8751C67.7403 60.9107 67.7425 60.9441 67.747 60.9753C67.7559 61.0065 67.7849 61.0221 67.8339 61.0221H70.1739C70.1828 61.0221 70.1962 61.0199 70.214 61.0155C70.2363 61.011 70.2564 61.0065 70.2742 61.0021V60.9085C70.2831 60.8728 70.2876 60.8416 70.2876 60.8149C70.2876 60.7881 70.2876 60.7614 70.2876 60.7347V60.4539C70.2876 60.4137 70.2898 60.3759 70.2942 60.3402C70.3032 60.3001 70.3188 60.2689 70.341 60.2466C70.3544 60.2243 70.3745 60.2065 70.4012 60.1931C70.4324 60.1797 70.4681 60.1686 70.5082 60.1597C70.5305 60.1552 70.5706 60.153 70.6285 60.153H70.7622C70.8113 60.153 70.8536 60.1619 70.8893 60.1797C70.9829 60.2109 71.0363 60.2667 71.0497 60.3469C71.0586 60.3825 71.0631 60.4182 71.0631 60.4539C71.0631 60.4851 71.0653 60.5163 71.0698 60.5475V60.7614ZM70.9762 63.5159C71.0208 63.5159 71.0609 63.5204 71.0965 63.5293C71.1322 63.5382 71.1678 63.5516 71.2035 63.5694C71.2614 63.5917 71.3149 63.6318 71.364 63.6897C71.3996 63.7388 71.4174 63.8145 71.4174 63.9171C71.4174 63.975 71.4108 64.024 71.3974 64.0641C71.384 64.0998 71.3528 64.1355 71.3038 64.1711C71.2325 64.2291 71.1478 64.2647 71.0497 64.2781C70.9294 64.3048 70.8157 64.3182 70.7088 64.3182C70.6508 64.3182 70.5973 64.3227 70.5483 64.3316C70.5037 64.336 70.4636 64.3383 70.4279 64.3383H69.3917C69.4006 64.4007 69.405 64.4787 69.405 64.5723C69.4095 64.6614 69.4117 64.7305 69.4117 64.7795C69.4162 64.8731 69.4095 64.9823 69.3917 65.1071C69.3783 65.1873 69.3538 65.2631 69.3181 65.3344C69.3048 65.4102 69.2579 65.4748 69.1777 65.5283C69.1421 65.5551 69.102 65.5729 69.0574 65.5818C69.0173 65.5952 68.9771 65.6019 68.937 65.6019C68.839 65.6019 68.7565 65.5773 68.6897 65.5283C68.6273 65.5016 68.5849 65.4525 68.5626 65.3812C68.5448 65.3411 68.5292 65.3077 68.5158 65.2809C68.5069 65.2497 68.5025 65.2185 68.5025 65.1873C68.4936 65.1651 68.4891 65.1405 68.4891 65.1138C68.4891 65.0871 68.4891 65.0603 68.4891 65.0336V64.3383H67.0717C67.0138 64.3383 66.9603 64.3338 66.9113 64.3249C66.8622 64.316 66.8177 64.3071 66.7776 64.2981C66.675 64.2625 66.5993 64.2045 66.5502 64.1243C66.519 64.0842 66.499 64.0441 66.4901 64.004C66.4811 63.9639 66.4767 63.9193 66.4767 63.8703C66.4767 63.7856 66.5101 63.712 66.577 63.6496C66.6126 63.614 66.6527 63.5872 66.6973 63.5694C66.733 63.556 66.7597 63.5471 66.7776 63.5427C66.7998 63.5382 66.8266 63.536 66.8578 63.536C66.8845 63.5271 66.909 63.5226 66.9313 63.5226C66.9536 63.5226 66.9759 63.5226 66.9982 63.5226H67.0517L70.7489 63.5025C70.7845 63.5025 70.8224 63.5025 70.8625 63.5025C70.9026 63.5025 70.9405 63.507 70.9762 63.5159ZM70.2608 62.0852C70.2697 62.0718 70.2742 62.0384 70.2742 61.9849C70.2742 61.9626 70.2742 61.9425 70.2742 61.9247C70.2742 61.9069 70.2697 61.8913 70.2608 61.8779C70.2608 61.8378 70.2586 61.8133 70.2541 61.8044C70.2318 61.7821 70.2096 61.7687 70.1873 61.7643C70.1694 61.7553 70.1494 61.7464 70.1271 61.7375H68.6629L68.3888 61.7308H68.2484C68.2261 61.7308 68.2038 61.7308 68.1815 61.7308C68.1637 61.7308 68.1392 61.7264 68.108 61.7175C68.0768 61.7175 68.0456 61.7197 68.0144 61.7241C67.9877 61.7241 67.9609 61.7241 67.9342 61.7241C67.8807 61.7241 67.8339 61.7375 67.7938 61.7643C67.7804 61.7776 67.767 61.7955 67.7537 61.8177C67.7448 61.84 67.7448 61.869 67.7537 61.9047V62.1186C67.7626 62.1364 67.767 62.1476 67.767 62.152V62.1587C67.767 62.1899 67.7849 62.2189 67.8205 62.2456C67.8428 62.2545 67.8606 62.2635 67.874 62.2724C67.8918 62.2768 67.9119 62.2791 67.9342 62.2791C67.9788 62.288 68.0233 62.288 68.0679 62.2791H69.7861C69.7995 62.2791 69.8151 62.2813 69.8329 62.2857C69.8552 62.2857 69.8775 62.2835 69.8998 62.2791H70.0201C70.029 62.2791 70.0379 62.2791 70.0469 62.2791C70.0558 62.2791 70.0714 62.2813 70.0937 62.2857H70.1739C70.1828 62.2813 70.1939 62.2791 70.2073 62.2791C70.2207 62.2746 70.2318 62.2679 70.2408 62.259C70.2497 62.2412 70.2541 62.2278 70.2541 62.2189C70.2586 62.21 70.2608 62.1944 70.2608 62.1721V62.0852Z" fill="#20A5FF"/>
<path d="M71.8139 63.1683C71.7515 63.1415 71.7069 63.0903 71.6802 63.0145C71.6445 62.9253 71.6378 62.8362 71.6601 62.7471C71.6869 62.6579 71.727 62.5732 71.7805 62.493C71.8339 62.4128 71.8941 62.337 71.961 62.2657C72.0323 62.1944 72.0925 62.1275 72.1415 62.0651C72.2173 61.9715 72.2908 61.8779 72.3621 61.7843C72.4334 61.6907 72.507 61.5949 72.5827 61.4968C72.6362 61.4211 72.6919 61.3319 72.7499 61.2294C72.8078 61.1269 72.8413 61.0266 72.8502 60.9285C72.8502 60.9018 72.8524 60.8684 72.8569 60.8283C72.8613 60.7837 72.8635 60.7391 72.8635 60.6945C72.868 60.6455 72.8725 60.6009 72.8769 60.5608C72.8814 60.5207 72.888 60.4873 72.897 60.4605C72.9237 60.3714 72.9661 60.3112 73.024 60.28C73.0864 60.2444 73.18 60.2265 73.3048 60.2265C73.3761 60.2265 73.4563 60.2399 73.5455 60.2667C73.6346 60.2889 73.6948 60.3357 73.726 60.4071C73.7572 60.4873 73.7661 60.5809 73.7527 60.6879C73.7438 60.7904 73.7527 60.884 73.7795 60.9687C73.8018 61.0355 73.8352 61.1046 73.8798 61.1759C73.9243 61.2472 73.9711 61.3185 74.0202 61.3899C74.1049 61.5102 74.1895 61.6417 74.2742 61.7843C74.3589 61.9225 74.4369 62.0406 74.5082 62.1387C74.5795 62.2323 74.6486 62.3303 74.7155 62.4328C74.7823 62.5309 74.8269 62.6379 74.8492 62.7537C74.8715 62.8518 74.8603 62.9343 74.8158 63.0011C74.7757 63.0635 74.7199 63.1103 74.6486 63.1415C74.5773 63.1683 74.4993 63.1749 74.4146 63.1616C74.3299 63.1437 74.2564 63.1036 74.194 63.0412C74.0291 62.8719 73.8798 62.6913 73.746 62.4997C73.6123 62.3036 73.4742 62.1119 73.3315 61.9247C73.3315 61.9247 73.3115 61.947 73.2714 61.9916C73.2313 62.0361 73.1822 62.0941 73.1243 62.1654C73.0663 62.2367 73.0017 62.3147 72.9304 62.3994C72.8591 62.4841 72.7922 62.5643 72.7298 62.6401C72.6674 62.7159 72.6117 62.7827 72.5627 62.8407C72.5181 62.8941 72.4914 62.9276 72.4824 62.9409C72.4334 62.9989 72.3777 63.0501 72.3153 63.0947C72.2529 63.1393 72.1838 63.1705 72.108 63.1883C72.059 63.1972 72.0078 63.2017 71.9543 63.2017C71.9053 63.2017 71.8585 63.1905 71.8139 63.1683ZM72.8435 65.4949C72.6607 65.4949 72.5137 65.4548 72.4022 65.3745C72.2908 65.2988 72.2351 65.2096 72.2351 65.1071V64.1444C72.2262 64.0463 72.2262 63.946 72.2351 63.8435C72.244 63.7499 72.2796 63.6741 72.342 63.6162C72.4089 63.5583 72.4936 63.5293 72.5961 63.5293C72.6184 63.5293 72.6585 63.5315 72.7164 63.536C72.7744 63.536 72.8145 63.5404 72.8368 63.5493C72.8947 63.5672 72.9393 63.5939 72.9705 63.6296C73.0062 63.6652 73.0329 63.7076 73.0507 63.7566C73.0686 63.8012 73.0797 63.8502 73.0842 63.9037C73.0886 63.9527 73.0931 64.0017 73.0975 64.0508C73.0975 64.0686 73.0975 64.1109 73.0975 64.1778C73.102 64.2402 73.1042 64.3093 73.1042 64.3851C73.1087 64.4564 73.1109 64.5232 73.1109 64.5856C73.1154 64.648 73.1198 64.6859 73.1243 64.6993C73.1376 64.7037 73.1733 64.7104 73.2313 64.7193C73.2937 64.7238 73.4073 64.726 73.5722 64.726C73.7149 64.726 73.8018 64.7238 73.833 64.7193C73.8686 64.7149 73.8887 64.7127 73.8931 64.7127H76.0794C76.0794 64.7127 76.0927 64.7171 76.1195 64.726C76.1507 64.7349 76.1841 64.7505 76.2198 64.7728C76.2554 64.7907 76.2888 64.8174 76.3201 64.8531C76.3512 64.8843 76.3713 64.9221 76.3802 64.9667C76.4025 65.1361 76.3735 65.2676 76.2933 65.3612C76.2398 65.4236 76.1819 65.4615 76.1195 65.4748C76.0571 65.4882 76.0237 65.4949 76.0192 65.4949H72.8435ZM76.2398 62.2724V62.9677C76.2354 63.0167 76.2287 63.068 76.2198 63.1215C76.2109 63.1705 76.193 63.2195 76.1663 63.2685C76.1351 63.3265 76.0972 63.3688 76.0526 63.3956C75.9813 63.4446 75.9055 63.4691 75.8253 63.4691C75.7584 63.4691 75.6961 63.4513 75.6381 63.4156C75.5935 63.3889 75.5579 63.3555 75.5311 63.3153C75.5044 63.2752 75.4821 63.2373 75.4643 63.2017C75.4509 63.166 75.442 63.1348 75.4375 63.1081C75.4331 63.0769 75.4308 63.0613 75.4308 63.0613V60.7146C75.4308 60.6923 75.4331 60.6433 75.4375 60.5675C75.4464 60.4873 75.4643 60.4204 75.491 60.3669C75.5356 60.2733 75.627 60.2199 75.7651 60.2065C75.8409 60.1976 75.9122 60.202 75.9791 60.2199C76.0459 60.2377 76.0972 60.2667 76.1329 60.3068C76.1596 60.3424 76.1774 60.3781 76.1863 60.4137C76.1997 60.4449 76.2109 60.4784 76.2198 60.514C76.2331 60.5586 76.2398 60.6054 76.2398 60.6544C76.2443 60.7035 76.2443 60.7525 76.2398 60.8015V61.5236C76.2577 61.5236 76.2911 61.5258 76.3401 61.5303C76.3891 61.5347 76.4404 61.5392 76.4939 61.5436C76.5518 61.5436 76.6053 61.5459 76.6543 61.5503C76.7034 61.5548 76.7368 61.5592 76.7546 61.5637C76.8438 61.5815 76.9062 61.6083 76.9418 61.6439C76.9775 61.6751 77.002 61.7152 77.0154 61.7643C77.0243 61.8133 77.0287 61.8712 77.0287 61.9381C77.0287 62.0005 77.0154 62.054 76.9886 62.0985C76.9351 62.1877 76.8549 62.2389 76.7479 62.2523C76.641 62.2657 76.5229 62.2724 76.3936 62.2724H76.2398Z" fill="#20A5FF"/>
<path d="M83.2524 60.982C83.2524 60.9241 83.2524 60.8617 83.2524 60.7948C83.2568 60.7235 83.2635 60.6544 83.2724 60.5876C83.2858 60.5163 83.3014 60.4516 83.3192 60.3937C83.3415 60.3313 83.3727 60.28 83.4128 60.2399C83.4707 60.182 83.5421 60.153 83.6268 60.153H83.6401C83.7516 60.1575 83.8385 60.1909 83.9009 60.2533C83.9633 60.3112 84.0101 60.3825 84.0413 60.4672C84.0769 60.5519 84.0992 60.6411 84.1081 60.7347C84.117 60.8238 84.1215 60.904 84.1215 60.9753V64.94C84.1215 64.9444 84.1215 64.9667 84.1215 65.0068C84.1215 65.0425 84.117 65.0871 84.1081 65.1405C84.0992 65.194 84.0858 65.2475 84.068 65.301C84.0502 65.3545 84.0212 65.3991 83.9811 65.4347C83.9499 65.4659 83.9053 65.4904 83.8474 65.5083C83.7894 65.5261 83.736 65.535 83.6869 65.535C83.58 65.535 83.4953 65.4993 83.4329 65.428C83.3749 65.3656 83.337 65.3055 83.3192 65.2475C83.3058 65.1851 83.2947 65.116 83.2858 65.0403C83.2858 65.0001 83.2836 64.9422 83.2791 64.8664C83.2791 64.7862 83.2791 64.7015 83.2791 64.6124C83.2791 64.5188 83.2791 64.4274 83.2791 64.3383C83.2791 64.2447 83.2791 64.1667 83.2791 64.1043H82.8646C82.7621 64.1043 82.6818 64.0887 82.6239 64.0575C82.5704 64.0263 82.5325 63.9861 82.5102 63.9371C82.4969 63.9104 82.4835 63.8836 82.4701 63.8569C82.4612 63.8257 82.4568 63.7945 82.4568 63.7633C82.4568 63.7321 82.4568 63.7053 82.4568 63.6831C82.4568 63.6608 82.4612 63.634 82.4701 63.6028C82.479 63.5672 82.4902 63.5293 82.5036 63.4892C82.5169 63.4491 82.537 63.4179 82.5637 63.3956C82.6217 63.351 82.6841 63.322 82.7509 63.3087C82.8222 63.2953 82.9047 63.2886 82.9983 63.2886C83.0964 63.2841 83.1833 63.2775 83.259 63.2685C83.259 63.2373 83.259 63.1905 83.259 63.1281C83.259 63.0613 83.259 62.9877 83.259 62.9075C83.259 62.8273 83.2568 62.7471 83.2524 62.6668C83.2524 62.5821 83.2524 62.5019 83.2524 62.4261L82.8512 62.4128C82.7665 62.4083 82.6908 62.3972 82.6239 62.3793C82.557 62.3615 82.5125 62.3281 82.4902 62.2791C82.459 62.2167 82.4434 62.1565 82.4434 62.0985C82.4434 62.0673 82.4434 62.0406 82.4434 62.0183C82.4434 61.996 82.4478 61.9693 82.4568 61.9381C82.4657 61.9024 82.4768 61.8668 82.4902 61.8311C82.5036 61.7955 82.5236 61.7665 82.5504 61.7442C82.6083 61.6996 82.6707 61.6707 82.7376 61.6573C82.7866 61.6484 82.8534 61.6439 82.9381 61.6439C83.0273 61.6395 83.1298 61.6328 83.2457 61.6239C83.2457 61.4768 83.2457 61.3453 83.2457 61.2294C83.2457 61.1091 83.2479 61.0266 83.2524 60.982ZM80.8188 60.153C80.8767 60.153 80.9324 60.1552 80.9859 60.1597C81.0394 60.1641 81.0929 60.1708 81.1464 60.1797C81.3157 60.2065 81.465 60.2845 81.5943 60.4137C81.7013 60.5296 81.7882 60.6633 81.855 60.8149C81.9264 60.962 81.9821 61.118 82.0222 61.2829C82.0623 61.4478 82.0913 61.6172 82.1091 61.791C82.1269 61.9604 82.1403 62.1253 82.1492 62.2857C82.1581 62.4908 82.1604 62.6958 82.1559 62.9008C82.1514 63.1059 82.1381 63.3087 82.1158 63.5092C82.0935 63.7187 82.0601 63.9304 82.0155 64.1444C81.9754 64.3539 81.8996 64.5433 81.7882 64.7127C81.6946 64.8553 81.5787 64.9734 81.4405 65.067C81.3024 65.1561 81.1575 65.2163 81.006 65.2475C80.8678 65.2743 80.7274 65.2787 80.5848 65.2609C80.4421 65.2431 80.3062 65.1963 80.1769 65.1205C80.0566 65.0492 79.9541 64.96 79.8694 64.8531C79.7892 64.7461 79.7178 64.6213 79.6554 64.4787C79.5663 64.2647 79.515 64.0441 79.5017 63.8168C79.4838 63.6296 79.4705 63.4424 79.4616 63.2552C79.4571 63.068 79.4549 62.8808 79.4549 62.6936C79.4549 62.5643 79.4549 62.4395 79.4549 62.3192C79.4593 62.1944 79.4682 62.0696 79.4816 61.9448C79.4905 61.8423 79.5017 61.742 79.515 61.6439C79.5284 61.5414 79.544 61.4411 79.5618 61.3431C79.5797 61.2628 79.5953 61.1871 79.6086 61.1157C79.622 61.0444 79.6465 60.9709 79.6822 60.8951C79.7178 60.8193 79.7557 60.748 79.7958 60.6812C79.8404 60.6143 79.8917 60.5541 79.9496 60.5007C80.0477 60.4026 80.1569 60.3268 80.2772 60.2733C80.3976 60.2199 80.5224 60.1842 80.6516 60.1664C80.6784 60.1619 80.7051 60.1597 80.7318 60.1597C80.763 60.1597 80.792 60.1575 80.8188 60.153ZM80.7987 64.3583C80.8834 64.3583 80.9658 64.3316 81.0461 64.2781C81.1218 64.2246 81.1753 64.1533 81.2065 64.0641C81.2377 63.975 81.2645 63.8769 81.2868 63.77C81.3224 63.5649 81.3425 63.3465 81.3469 63.1148C81.3514 62.883 81.3492 62.6601 81.3402 62.4462C81.3402 62.3615 81.338 62.2724 81.3335 62.1788C81.3291 62.0807 81.3202 61.9849 81.3068 61.8913C81.2979 61.7977 81.2823 61.7085 81.26 61.6239C81.2377 61.5347 81.2065 61.4567 81.1664 61.3899C81.1218 61.3141 81.0684 61.2561 81.006 61.216C80.9436 61.1759 80.8767 61.1603 80.8054 61.1692C80.7296 61.1781 80.6605 61.2049 80.5981 61.2495C80.5357 61.294 80.4845 61.3609 80.4444 61.45L80.3842 61.5904C80.3574 61.6751 80.3374 61.7643 80.324 61.8579C80.3106 61.947 80.2995 62.0361 80.2906 62.1253C80.2817 62.2144 80.275 62.3058 80.2705 62.3994C80.2661 62.493 80.2638 62.5844 80.2638 62.6735C80.2683 62.7627 80.2661 62.8496 80.2571 62.9343C80.2527 63.0189 80.2549 63.1059 80.2638 63.195C80.2728 63.3109 80.2839 63.4357 80.2973 63.5694C80.3151 63.7031 80.3418 63.8301 80.3775 63.9505C80.4132 64.0664 80.4644 64.1644 80.5313 64.2447C80.5981 64.3204 80.6873 64.3583 80.7987 64.3583Z" fill="#20A5FF"/>
<path d="M85.2351 64.5121C85.2351 64.3115 85.2931 64.1444 85.409 64.0107C85.5293 63.8769 85.6898 63.7722 85.8903 63.6964C86.0909 63.6162 86.3271 63.5605 86.599 63.5293C86.8709 63.4981 87.1606 63.4825 87.4682 63.4825C87.7757 63.4825 88.0654 63.4936 88.3373 63.5159C88.6092 63.5382 88.8454 63.5872 89.046 63.663C89.2466 63.7343 89.4048 63.8368 89.5207 63.9705C89.641 64.1043 89.7012 64.2848 89.7012 64.5121C89.7012 64.7349 89.641 64.9132 89.5207 65.0469C89.4048 65.1807 89.2466 65.2832 89.046 65.3545C88.8454 65.4303 88.6092 65.4793 88.3373 65.5016C88.0654 65.5283 87.7757 65.5417 87.4682 65.5417C87.1606 65.5417 86.8709 65.5283 86.599 65.5016C86.3271 65.4793 86.0909 65.4303 85.8903 65.3545C85.6898 65.2832 85.5293 65.1807 85.409 65.0469C85.2931 64.9132 85.2351 64.7349 85.2351 64.5121ZM87.4815 62.0116C87.4815 62.1988 87.4392 62.3749 87.3545 62.5398C87.2743 62.7003 87.1606 62.8362 87.0135 62.9476C86.813 63.0992 86.5901 63.1839 86.345 63.2017C86.1043 63.2195 85.8747 63.1839 85.6563 63.0947C85.4379 63.0056 85.2552 62.8674 85.1081 62.6802C84.961 62.493 84.8875 62.2701 84.8875 62.0116C84.8875 61.8645 84.9075 61.7308 84.9477 61.6105C84.9878 61.4857 85.0457 61.3765 85.1215 61.2829H85.068C84.9655 61.2829 84.8763 61.2517 84.8006 61.1893C84.7293 61.1224 84.6936 61.04 84.6936 60.9419C84.6936 60.8439 84.7293 60.7614 84.8006 60.6945C84.8763 60.6277 84.9655 60.5943 85.068 60.5943H85.7901V60.3736C85.7901 60.2889 85.8257 60.2199 85.897 60.1664C85.9683 60.1084 86.0553 60.0795 86.1578 60.0795C86.2603 60.0795 86.3472 60.1084 86.4185 60.1664C86.4943 60.2199 86.5322 60.2889 86.5322 60.3736V60.5943H87.2943C87.3969 60.5943 87.4838 60.6277 87.5551 60.6945C87.6309 60.7614 87.6687 60.8439 87.6687 60.9419C87.6687 61.04 87.6309 61.1224 87.5551 61.1893C87.4838 61.2517 87.3969 61.2829 87.2943 61.2829H87.2409C87.3166 61.3765 87.3746 61.4857 87.4147 61.6105C87.4593 61.7308 87.4815 61.8645 87.4815 62.0116ZM89.6477 62.9276C89.6477 62.932 89.6455 62.9476 89.641 62.9744C89.641 63.0011 89.6343 63.0345 89.621 63.0747C89.6076 63.1103 89.5875 63.1482 89.5608 63.1883C89.5385 63.2284 89.5051 63.2619 89.4605 63.2886C89.4115 63.3198 89.3602 63.3354 89.3067 63.3354C89.2176 63.3354 89.1441 63.3131 89.0861 63.2685C89.0371 63.2329 88.9992 63.1883 88.9725 63.1348C88.9056 63.01 88.8744 62.8741 88.8789 62.727C88.8833 62.5755 88.8878 62.4306 88.8922 62.2924V62.1988C88.8432 62.2033 88.7942 62.2077 88.7451 62.2122C88.7006 62.2122 88.656 62.2122 88.6114 62.2122H88.5914V62.8206C88.5869 62.8696 88.5802 62.9209 88.5713 62.9744C88.5624 63.0234 88.5446 63.0724 88.5178 63.1215C88.4866 63.1794 88.4487 63.2217 88.4042 63.2485C88.373 63.2708 88.3462 63.2886 88.3239 63.302C88.3017 63.3153 88.2705 63.322 88.2303 63.322C88.1679 63.322 88.1055 63.3042 88.0431 63.2685C87.9986 63.2418 87.9629 63.2084 87.9362 63.1683C87.9094 63.1281 87.8894 63.0903 87.876 63.0546C87.8626 63.0189 87.8537 62.9877 87.8493 62.961C87.8448 62.9298 87.8426 62.9142 87.8426 62.9142V60.7079C87.8381 60.6856 87.8381 60.6366 87.8426 60.5608C87.8515 60.4806 87.8693 60.4137 87.8961 60.3603C87.9406 60.2667 88.032 60.2132 88.1702 60.1998C88.2459 60.1909 88.3083 60.1953 88.3574 60.2132C88.4064 60.231 88.4487 60.26 88.4844 60.3001C88.5156 60.3357 88.5357 60.3714 88.5446 60.4071C88.5535 60.4383 88.5624 60.4717 88.5713 60.5073C88.5847 60.5519 88.5914 60.5987 88.5914 60.6477C88.5958 60.6968 88.5981 60.7458 88.5981 60.7948C88.5936 60.8127 88.5914 60.8394 88.5914 60.8751V61.4634C88.6136 61.4679 88.6538 61.4723 88.7117 61.4768C88.7741 61.4768 88.8365 61.479 88.8989 61.4835V60.7748C88.8945 60.7257 88.8922 60.6789 88.8922 60.6344C88.8967 60.5853 88.9056 60.5363 88.919 60.4873C88.9368 60.4204 88.9769 60.3536 89.0393 60.2867C89.1106 60.1976 89.2154 60.1619 89.3535 60.1797C89.4694 60.1976 89.5497 60.2555 89.5942 60.3536C89.621 60.4071 89.6366 60.4717 89.641 60.5475C89.6499 60.6232 89.6522 60.67 89.6477 60.6879V62.9276ZM88.7986 64.5121C88.7986 64.4363 88.7585 64.3761 88.6783 64.3316C88.5981 64.287 88.4933 64.2536 88.3641 64.2313C88.2393 64.209 88.0966 64.1956 87.9362 64.1912C87.7802 64.1823 87.6242 64.1778 87.4682 64.1778C87.3122 64.1778 87.1562 64.1823 87.0002 64.1912C86.8486 64.1956 86.7105 64.209 86.5857 64.2313C86.4653 64.2536 86.3672 64.287 86.2915 64.3316C86.2157 64.3761 86.1778 64.4363 86.1778 64.5121C86.1778 64.5789 86.2157 64.6347 86.2915 64.6792C86.3672 64.7238 86.4653 64.7572 86.5857 64.7795C86.7105 64.8018 86.8486 64.8174 87.0002 64.8263C87.1562 64.8352 87.3122 64.8397 87.4682 64.8397C87.6242 64.8397 87.7802 64.8397 87.9362 64.8397C88.0966 64.8397 88.2393 64.8308 88.3641 64.8129C88.4933 64.7951 88.5981 64.7639 88.6783 64.7193C88.7585 64.6703 88.7986 64.6012 88.7986 64.5121ZM86.2915 62.493C86.4163 62.4663 86.5166 62.4172 86.5923 62.3459C86.6726 62.2746 86.7127 62.1632 86.7127 62.0116C86.7127 61.8378 86.657 61.7063 86.5455 61.6172C86.4386 61.5236 86.3205 61.4745 86.1912 61.4701C86.0575 61.4656 85.9349 61.508 85.8235 61.5971C85.7121 61.6863 85.6563 61.8244 85.6563 62.0116C85.6563 62.1186 85.6742 62.2077 85.7098 62.2791C85.7455 62.3459 85.7923 62.3972 85.8502 62.4328C85.9126 62.4685 85.9817 62.4908 86.0575 62.4997C86.1333 62.5086 86.2113 62.5064 86.2915 62.493Z" fill="#20A5FF"/>
<path d="M93.9191 61.7843C94.1598 61.7932 94.3626 61.8512 94.5275 61.9581C94.6924 62.0651 94.8261 62.2033 94.9286 62.3727C95.0312 62.542 95.1025 62.7337 95.1426 62.9476C95.1827 63.1616 95.1983 63.3777 95.1894 63.5961C95.1849 63.8145 95.1537 64.0285 95.0958 64.238C95.0423 64.4475 94.971 64.6324 94.8818 64.7929C94.7838 64.9667 94.6456 65.1004 94.4673 65.194C94.2935 65.2832 94.1063 65.3344 93.9057 65.3478C93.7052 65.3612 93.5068 65.3344 93.3107 65.2676C93.119 65.2007 92.9564 65.096 92.8226 64.9533C92.7068 64.8285 92.6243 64.6993 92.5753 64.5656C92.5262 64.4274 92.4906 64.2759 92.4683 64.1109C92.446 63.946 92.4282 63.7878 92.4148 63.6363C92.4014 63.4803 92.3992 63.3265 92.4081 63.1749C92.417 63.0234 92.4416 62.8741 92.4817 62.727C92.5262 62.5799 92.5931 62.4328 92.6822 62.2857C92.7313 62.2011 92.8004 62.1275 92.8895 62.0651C92.9786 61.9983 93.0789 61.9448 93.1904 61.9047C93.3018 61.8601 93.4199 61.8289 93.5447 61.8111C93.674 61.7888 93.7988 61.7799 93.9191 61.7843ZM97.048 62.2724C97.0703 62.2724 97.0904 62.2746 97.1082 62.2791C97.1305 62.2835 97.1528 62.2857 97.175 62.2857C97.1973 62.2902 97.2218 62.2947 97.2486 62.2991C97.2753 62.2991 97.3021 62.3013 97.3288 62.3058C97.3778 62.3147 97.4269 62.3325 97.4759 62.3593C97.5249 62.3816 97.5606 62.4172 97.5829 62.4663C97.6141 62.5153 97.6297 62.5732 97.6297 62.6401C97.6297 62.6757 97.6274 62.7092 97.623 62.7404C97.623 62.7671 97.6185 62.7983 97.6096 62.834C97.6007 62.8696 97.5896 62.9075 97.5762 62.9476C97.5673 62.9877 97.5472 63.0189 97.516 63.0412C97.4536 63.0858 97.3934 63.1148 97.3355 63.1281C97.2642 63.1371 97.1773 63.1393 97.0748 63.1348C96.9722 63.1304 96.8853 63.1304 96.814 63.1348C96.8096 63.1348 96.8051 63.1371 96.8006 63.1415H96.794L96.7873 63.1482V63.1683C96.7828 63.2797 96.7806 63.4089 96.7806 63.556C96.785 63.7031 96.7873 63.8346 96.7873 63.9505C96.7962 64.1823 96.7962 64.4096 96.7873 64.6324V64.726C96.7873 64.784 96.785 64.8486 96.7806 64.9199C96.7806 64.9868 96.7761 65.0536 96.7672 65.1205C96.7583 65.1873 96.7427 65.252 96.7204 65.3144C96.6981 65.3723 96.6669 65.4213 96.6268 65.4615C96.5733 65.5239 96.502 65.5551 96.4129 65.5551C96.4129 65.5551 96.4084 65.5528 96.3995 65.5484C96.2925 65.5439 96.2056 65.5127 96.1388 65.4548C96.0764 65.3968 96.0273 65.3255 95.9917 65.2408C95.9605 65.1561 95.9404 65.0692 95.9315 64.9801C95.9226 64.8865 95.9181 64.804 95.9181 64.7327V60.7614C95.9181 60.7569 95.9181 60.7369 95.9181 60.7012C95.9181 60.6611 95.9226 60.6165 95.9315 60.5675C95.9404 60.514 95.9538 60.4605 95.9716 60.4071C95.9939 60.3491 96.0229 60.3023 96.0585 60.2667C96.0897 60.2355 96.1343 60.2132 96.1922 60.1998C96.2546 60.182 96.3104 60.1731 96.3594 60.1731C96.4574 60.1731 96.5399 60.2065 96.6068 60.2733C96.6692 60.3357 96.7048 60.4026 96.7137 60.4739C96.7271 60.5408 96.7382 60.6121 96.7472 60.6879C96.7516 60.7057 96.7538 60.7324 96.7538 60.7681C96.7628 60.8439 96.7672 60.9219 96.7672 61.0021C96.7717 61.0823 96.7761 61.1625 96.7806 61.2428C96.7806 61.2918 96.7806 61.3408 96.7806 61.3899C96.785 61.4344 96.7873 61.4812 96.7873 61.5303C96.7828 61.557 96.7806 61.5837 96.7806 61.6105C96.785 61.6328 96.7873 61.6551 96.7873 61.6773V62.1119C96.7873 62.1342 96.7873 62.1587 96.7873 62.1855C96.7873 62.2122 96.7917 62.2367 96.8006 62.259C96.8006 62.2635 96.8229 62.2657 96.8675 62.2657C96.9121 62.2657 96.9366 62.2657 96.941 62.2657C96.9812 62.2746 97.0124 62.2768 97.0346 62.2724H97.048ZM94.8551 60.7146C94.9442 60.7146 95.0334 60.728 95.1225 60.7547C95.2117 60.7815 95.2808 60.8394 95.3298 60.9285C95.361 60.9865 95.3721 61.06 95.3632 61.1492C95.3543 61.2339 95.3276 61.3052 95.283 61.3631C95.2384 61.4166 95.1693 61.4545 95.0757 61.4768C94.9821 61.4991 94.8841 61.5147 94.7816 61.5236C94.679 61.528 94.5832 61.528 94.4941 61.5236C94.4094 61.5191 94.3514 61.5169 94.3202 61.5169C94.2846 61.5213 94.2489 61.5236 94.2133 61.5236C94.1821 61.5236 94.1464 61.5236 94.1063 61.5236H93.8924C93.8567 61.5191 93.821 61.5169 93.7854 61.5169C93.7542 61.5169 93.7208 61.5169 93.6851 61.5169L92.8962 61.5035C92.6689 61.5035 92.5062 61.4745 92.4081 61.4166C92.3101 61.3587 92.2521 61.2673 92.2343 61.1425C92.2165 61.0132 92.2499 60.9085 92.3346 60.8283C92.397 60.7748 92.4482 60.7413 92.4884 60.728C92.5329 60.7146 92.5886 60.7079 92.6555 60.7079C92.6733 60.7079 92.6912 60.7101 92.709 60.7146C92.7268 60.7146 92.7446 60.7146 92.7625 60.7146H92.9296C92.992 60.7146 93.0656 60.7146 93.1502 60.7146C93.2349 60.7101 93.3085 60.7057 93.3709 60.7012C93.3709 60.6834 93.3709 60.6589 93.3709 60.6277C93.3753 60.592 93.3776 60.5564 93.3776 60.5207C93.382 60.4851 93.3842 60.4516 93.3842 60.4204C93.3887 60.3848 93.3909 60.3603 93.3909 60.3469C93.3998 60.2711 93.4244 60.202 93.4645 60.1396C93.5581 60.0104 93.674 59.9502 93.8121 59.9591C93.8745 59.968 93.9369 59.9792 93.9993 59.9925C94.0617 60.0015 94.113 60.0327 94.1531 60.0861C94.2021 60.1575 94.2244 60.2555 94.22 60.3803C94.22 60.5007 94.2244 60.6099 94.2333 60.7079H94.4272C94.4629 60.7079 94.5141 60.7101 94.581 60.7146C94.6478 60.7146 94.6991 60.7146 94.7348 60.7146H94.8551ZM93.8924 64.6124C93.9904 64.599 94.0751 64.5611 94.1464 64.4987C94.2177 64.4319 94.2757 64.3539 94.3202 64.2647C94.3648 64.1756 94.396 64.0797 94.4138 63.9772C94.4317 63.8747 94.4406 63.7789 94.4406 63.6897C94.4406 63.614 94.4361 63.5293 94.4272 63.4357C94.4228 63.3376 94.4116 63.244 94.3938 63.1549C94.376 63.0613 94.347 62.9766 94.3069 62.9008C94.2668 62.8206 94.2133 62.756 94.1464 62.7069C94.084 62.6668 94.0105 62.6423 93.9258 62.6334C93.8411 62.62 93.7542 62.6223 93.665 62.6401C93.5804 62.6579 93.5023 62.6891 93.431 62.7337C93.3597 62.7738 93.3085 62.8295 93.2773 62.9008C93.1926 63.0836 93.148 63.2663 93.1436 63.4491C93.1436 63.6318 93.1636 63.819 93.2037 64.0107C93.226 64.1087 93.2572 64.2112 93.2973 64.3182C93.3374 64.4207 93.3998 64.5009 93.4845 64.5589C93.5024 64.5723 93.5291 64.5834 93.5648 64.5923C93.6049 64.5968 93.645 64.6012 93.6851 64.6057C93.7297 64.6101 93.7698 64.6146 93.8054 64.6191C93.8456 64.6191 93.8745 64.6168 93.8924 64.6124Z" fill="#20A5FF"/>
<path d="M102.725 65.0269C102.716 65.0804 102.709 65.1339 102.705 65.1873C102.7 65.2364 102.689 65.2876 102.671 65.3411C102.662 65.3589 102.656 65.3745 102.651 65.3879C102.647 65.4013 102.64 65.4169 102.631 65.4347C102.6 65.4971 102.56 65.5461 102.511 65.5818C102.408 65.6442 102.295 65.6598 102.17 65.6286C102.098 65.6152 102.041 65.5885 101.996 65.5484C101.956 65.5127 101.925 65.4659 101.902 65.408C101.885 65.3545 101.869 65.301 101.856 65.2475C101.847 65.194 101.842 65.1472 101.842 65.1071C101.842 65.067 101.842 65.0447 101.842 65.0403V60.9085C101.842 60.855 101.842 60.7971 101.842 60.7347C101.842 60.6723 101.847 60.6099 101.856 60.5475C101.864 60.4851 101.878 60.4271 101.896 60.3736C101.914 60.3201 101.938 60.2778 101.969 60.2466C102.018 60.1976 102.07 60.1686 102.123 60.1597C102.176 60.1463 102.234 60.1396 102.297 60.1396C102.373 60.1396 102.442 60.1619 102.504 60.2065C102.571 60.2466 102.618 60.3045 102.644 60.3803C102.685 60.4739 102.707 60.572 102.711 60.6745C102.716 60.777 102.72 60.8795 102.725 60.982V61.0155C102.734 61.3587 102.736 61.7108 102.731 62.0718C102.727 62.4328 102.725 62.7738 102.725 63.0947V64.7862C102.725 64.8263 102.725 64.8664 102.725 64.9065C102.729 64.9467 102.729 64.9868 102.725 65.0269ZM99.5691 64.3717C99.5646 64.3182 99.5624 64.2647 99.5624 64.2112C99.5624 64.1577 99.5624 64.1043 99.5624 64.0508V61.9247C99.5624 61.8534 99.5624 61.7821 99.5624 61.7108C99.5624 61.6395 99.5579 61.5659 99.549 61.4901C99.5445 61.4679 99.5378 61.4367 99.5289 61.3965C99.5245 61.3564 99.5111 61.3319 99.4888 61.323C99.4665 61.3096 99.4398 61.3052 99.4086 61.3096C99.3819 61.3096 99.3551 61.3074 99.3284 61.3029C99.2972 61.2985 99.266 61.2985 99.2348 61.3029C99.208 61.3074 99.1791 61.3074 99.1479 61.3029H98.8336C98.7579 61.3074 98.6821 61.3074 98.6063 61.3029C98.5305 61.2985 98.4548 61.2985 98.379 61.3029C98.3433 61.3074 98.3099 61.3096 98.2787 61.3096C98.252 61.3052 98.2208 61.3029 98.1851 61.3029C98.1361 61.3029 98.0848 61.3007 98.0313 61.2963C97.9779 61.2918 97.9288 61.274 97.8843 61.2428C97.8219 61.1982 97.7795 61.1425 97.7572 61.0756C97.7349 61.0088 97.7238 60.9397 97.7238 60.8684C97.7193 60.7837 97.7372 60.699 97.7773 60.6143C97.7996 60.5608 97.8285 60.5229 97.8642 60.5007C97.8865 60.4784 97.9177 60.4605 97.9578 60.4472C98.0024 60.4293 98.0403 60.416 98.0714 60.4071C98.1651 60.3848 98.2631 60.3736 98.3656 60.3736C98.4681 60.3692 98.5684 60.3669 98.6665 60.3669H99.8298C99.8877 60.3759 99.9479 60.3848 100.01 60.3937C100.077 60.3981 100.137 60.4115 100.191 60.4338C100.226 60.4472 100.26 60.465 100.291 60.4873C100.327 60.5096 100.356 60.5363 100.378 60.5675C100.418 60.6299 100.44 60.6923 100.445 60.7547C100.454 60.8171 100.463 60.8862 100.472 60.962C100.481 61.0868 100.485 61.2116 100.485 61.3364C100.485 61.4567 100.485 61.5793 100.485 61.7041V63.897C100.485 63.9015 100.485 63.9371 100.485 64.004C100.489 64.0664 100.492 64.1421 100.492 64.2313C100.492 64.316 100.492 64.4073 100.492 64.5054C100.492 64.599 100.489 64.6815 100.485 64.7528C100.481 64.7973 100.474 64.8441 100.465 64.8932C100.456 64.9422 100.44 64.989 100.418 65.0336C100.4 65.0781 100.374 65.1183 100.338 65.1539C100.302 65.1896 100.255 65.2185 100.198 65.2408C100.122 65.272 100.046 65.2876 99.9702 65.2876C99.9123 65.2876 99.8543 65.2765 99.7964 65.2542C99.7384 65.2275 99.6983 65.1896 99.676 65.1405C99.6047 64.9979 99.5691 64.8397 99.5691 64.6659V64.3717Z" fill="#20A5FF"/>
<path d="M105.793 64.8664C105.793 64.6614 105.897 64.4987 106.107 64.3784H106.067C105.973 64.3873 105.888 64.3828 105.813 64.365C105.75 64.3516 105.69 64.3271 105.632 64.2915C105.574 64.2558 105.541 64.2001 105.532 64.1243C105.523 64.0485 105.539 63.9772 105.579 63.9104C105.619 63.8391 105.683 63.7989 105.773 63.79C105.799 63.7856 105.826 63.7833 105.853 63.7833C105.88 63.7833 105.911 63.7833 105.946 63.7833H107.444C107.444 63.7299 107.446 63.6764 107.451 63.6229C107.455 63.5694 107.466 63.5204 107.484 63.4758C107.502 63.4268 107.526 63.3844 107.558 63.3488C107.593 63.3087 107.64 63.2797 107.698 63.2619C107.769 63.2351 107.836 63.2284 107.899 63.2418C107.966 63.2552 108.021 63.2797 108.066 63.3153C108.115 63.3465 108.155 63.3889 108.186 63.4424C108.217 63.4959 108.237 63.5493 108.246 63.6028C108.26 63.6697 108.262 63.7299 108.253 63.7833H109.296C109.363 63.7833 109.436 63.7789 109.517 63.77C109.597 63.7611 109.675 63.7611 109.751 63.77C109.831 63.7744 109.9 63.7923 109.958 63.8235C110.016 63.8547 110.056 63.9126 110.078 63.9973C110.096 64.0731 110.092 64.1355 110.065 64.1845C110.038 64.2335 109.998 64.2736 109.944 64.3048C109.895 64.3316 109.835 64.3516 109.764 64.365C109.697 64.3739 109.63 64.3806 109.563 64.3851C109.648 64.443 109.713 64.5121 109.757 64.5923C109.802 64.6681 109.824 64.7595 109.824 64.8664C109.824 65.0313 109.771 65.1628 109.664 65.2609C109.561 65.3589 109.419 65.4347 109.236 65.4882C109.053 65.5417 108.839 65.5773 108.594 65.5952C108.349 65.613 108.088 65.6219 107.812 65.6219C107.535 65.6219 107.275 65.613 107.03 65.5952C106.784 65.5773 106.57 65.5417 106.388 65.4882C106.205 65.4347 106.06 65.3589 105.953 65.2609C105.846 65.1628 105.793 65.0313 105.793 64.8664ZM109.316 61.2762C109.401 61.3119 109.483 61.3564 109.563 61.4099C109.644 61.4634 109.719 61.5191 109.791 61.5771C109.826 61.6083 109.851 61.6484 109.864 61.6974C109.878 61.7464 109.878 61.7955 109.864 61.8445C109.855 61.8891 109.833 61.9314 109.797 61.9715C109.766 62.0072 109.724 62.0295 109.67 62.0384C109.528 62.0696 109.378 62.0696 109.222 62.0384C109.071 62.0027 108.93 61.9559 108.801 61.898C108.681 61.8445 108.569 61.7932 108.467 61.7442C108.364 61.6952 108.262 61.6417 108.159 61.5837C108.128 61.5659 108.086 61.5436 108.032 61.5169C107.983 61.4901 107.934 61.4634 107.885 61.4367C107.827 61.4055 107.765 61.3743 107.698 61.3431C107.622 61.3787 107.549 61.4121 107.477 61.4433C107.415 61.4701 107.353 61.4968 107.29 61.5236C107.232 61.5503 107.186 61.5726 107.15 61.5904C107.034 61.6528 106.927 61.7063 106.829 61.7509C106.731 61.791 106.624 61.8378 106.508 61.8913C106.419 61.9269 106.328 61.9693 106.234 62.0183C106.145 62.0629 106.049 62.0807 105.946 62.0718C105.866 62.0673 105.788 62.0473 105.712 62.0116C105.637 61.976 105.59 61.9136 105.572 61.8244C105.568 61.7799 105.572 61.7286 105.585 61.6707C105.603 61.6083 105.632 61.5548 105.672 61.5102C105.717 61.4656 105.77 61.4255 105.833 61.3899L106.294 61.1625C106.37 61.1224 106.437 61.089 106.495 61.0623C106.553 61.0355 106.622 61.0043 106.702 60.9687C106.778 60.9285 106.865 60.884 106.963 60.8349C107.065 60.7859 107.161 60.7458 107.25 60.7146V60.7079H106.541C106.47 60.7079 106.408 60.7101 106.354 60.7146C106.305 60.7146 106.247 60.7101 106.18 60.7012C106.131 60.6923 106.078 60.6879 106.02 60.6879C105.962 60.6879 105.909 60.6767 105.86 60.6544C105.811 60.6277 105.77 60.5853 105.739 60.5274C105.712 60.4828 105.697 60.4338 105.692 60.3803C105.688 60.3224 105.697 60.2689 105.719 60.2199C105.755 60.1485 105.813 60.0951 105.893 60.0594C105.973 60.0237 106.056 60.0059 106.14 60.0059H106.294C106.365 60.0104 106.417 60.0126 106.448 60.0126C106.484 60.0081 106.537 60.0059 106.608 60.0059H108.922C108.993 60.0059 109.075 60.0037 109.169 59.9992C109.263 59.9948 109.352 60.0015 109.436 60.0193C109.526 60.0327 109.604 60.0616 109.67 60.1062C109.742 60.1508 109.788 60.2199 109.811 60.3135C109.838 60.4204 109.817 60.5029 109.751 60.5608C109.688 60.6188 109.606 60.6611 109.503 60.6879C109.405 60.7101 109.3 60.7235 109.189 60.728C109.078 60.728 108.986 60.7257 108.915 60.7213C108.844 60.7168 108.768 60.7146 108.688 60.7146C108.612 60.7146 108.538 60.7146 108.467 60.7146C108.387 60.7146 108.306 60.7168 108.226 60.7213V60.728C108.253 60.7413 108.28 60.7569 108.306 60.7748C108.338 60.7881 108.369 60.7993 108.4 60.8082C108.427 60.8216 108.451 60.8349 108.474 60.8483C108.5 60.8617 108.527 60.8751 108.554 60.8884C108.598 60.9107 108.641 60.933 108.681 60.9553C108.725 60.9731 108.77 60.9932 108.815 61.0155C108.899 61.0556 108.982 61.0979 109.062 61.1425C109.147 61.1871 109.231 61.2316 109.316 61.2762ZM109.677 62.4061C109.753 62.4105 109.829 62.4217 109.904 62.4395C109.985 62.4573 110.056 62.4908 110.118 62.5398C110.181 62.5888 110.212 62.6535 110.212 62.7337C110.212 62.7783 110.203 62.8273 110.185 62.8808C110.172 62.9343 110.152 62.9721 110.125 62.9944C110.089 63.0301 110.043 63.0568 109.985 63.0747C109.931 63.088 109.878 63.0992 109.824 63.1081C109.771 63.1125 109.724 63.1148 109.684 63.1148C109.648 63.1148 109.628 63.1148 109.624 63.1148L106.06 63.1215C105.958 63.1259 105.851 63.1259 105.739 63.1215C105.632 63.117 105.541 63.0836 105.465 63.0212C105.363 62.9454 105.311 62.8585 105.311 62.7604C105.311 62.698 105.331 62.6379 105.371 62.5799C105.416 62.5175 105.474 62.4752 105.545 62.4529C105.639 62.4217 105.735 62.4083 105.833 62.4128C105.931 62.4128 106.031 62.4105 106.134 62.4061C106.241 62.4016 106.332 62.3994 106.408 62.3994C106.488 62.3994 106.564 62.3994 106.635 62.3994C106.711 62.3994 106.789 62.4016 106.869 62.4061C106.949 62.4061 107.045 62.4061 107.157 62.4061V61.9515C107.157 61.8177 107.215 61.7264 107.33 61.6773C107.446 61.6283 107.571 61.6105 107.705 61.6239C107.825 61.6372 107.916 61.664 107.979 61.7041C108.046 61.7397 108.081 61.8021 108.086 61.8913C108.095 61.9537 108.099 62.0361 108.099 62.1387C108.104 62.2412 108.106 62.3303 108.106 62.4061C108.231 62.4061 108.364 62.4061 108.507 62.4061C108.65 62.4016 108.792 62.3994 108.935 62.3994C109.078 62.3994 109.214 62.3994 109.343 62.3994C109.472 62.3994 109.583 62.4016 109.677 62.4061ZM108.995 64.8664C108.995 64.8085 108.959 64.7661 108.888 64.7394C108.817 64.7127 108.725 64.6948 108.614 64.6859C108.503 64.6725 108.376 64.6659 108.233 64.6659C108.09 64.6659 107.95 64.6659 107.812 64.6659C107.669 64.6659 107.529 64.6659 107.391 64.6659C107.257 64.6659 107.136 64.6725 107.03 64.6859C106.923 64.6948 106.836 64.7127 106.769 64.7394C106.702 64.7661 106.668 64.8085 106.668 64.8664C106.668 64.9155 106.702 64.9533 106.769 64.9801C106.836 65.0068 106.923 65.0269 107.03 65.0403C107.136 65.0492 107.257 65.0559 107.391 65.0603C107.529 65.0603 107.669 65.0603 107.812 65.0603C107.95 65.0603 108.09 65.0625 108.233 65.067C108.376 65.0715 108.503 65.0692 108.614 65.0603C108.725 65.0514 108.817 65.0336 108.888 65.0068C108.959 64.9801 108.995 64.9333 108.995 64.8664Z" fill="#20A5FF"/>
<path d="M112.983 62.3793C112.662 62.3793 112.361 62.366 112.08 62.3392C111.804 62.308 111.563 62.2501 111.358 62.1654C111.158 62.0807 110.999 61.9626 110.883 61.8111C110.768 61.6551 110.71 61.4545 110.71 61.2093C110.71 60.9865 110.768 60.8015 110.883 60.6544C110.999 60.5029 111.158 60.3825 111.358 60.2934C111.563 60.1998 111.804 60.1352 112.08 60.0995C112.361 60.0594 112.662 60.0393 112.983 60.0393C113.304 60.0393 113.602 60.0549 113.879 60.0861C114.159 60.1129 114.4 60.1686 114.601 60.2533C114.806 60.3335 114.966 60.4516 115.082 60.6076C115.198 60.7592 115.256 60.9597 115.256 61.2093C115.256 61.4545 115.198 61.6551 115.082 61.8111C114.966 61.9626 114.806 62.0807 114.601 62.1654C114.4 62.2501 114.159 62.308 113.879 62.3392C113.602 62.366 113.304 62.3793 112.983 62.3793ZM114.962 64.726C114.966 64.726 114.982 64.7305 115.009 64.7394C115.035 64.7483 115.064 64.7639 115.095 64.7862C115.131 64.804 115.162 64.8308 115.189 64.8664C115.22 64.8976 115.24 64.9355 115.249 64.9801C115.276 65.1495 115.249 65.2809 115.169 65.3745C115.12 65.4369 115.066 65.4748 115.009 65.4882C114.951 65.5016 114.919 65.5083 114.915 65.5083H111.265C111.095 65.5083 110.961 65.4793 110.863 65.4213C110.765 65.3679 110.716 65.2899 110.716 65.1873V64.5923C110.707 64.4943 110.707 64.394 110.716 64.2915C110.725 64.1979 110.761 64.1221 110.823 64.0641C110.886 64.0062 110.964 63.9772 111.057 63.9772C111.08 63.9772 111.109 63.9795 111.144 63.9839C111.184 63.9839 111.215 63.9884 111.238 63.9973C111.296 64.0151 111.34 64.0419 111.371 64.0775C111.403 64.1132 111.427 64.1555 111.445 64.2045C111.463 64.2491 111.474 64.2981 111.478 64.3516C111.483 64.4007 111.487 64.4497 111.492 64.4987C111.492 64.5344 111.494 64.5723 111.499 64.6124C111.503 64.648 111.51 64.6815 111.519 64.7127C111.527 64.7171 111.568 64.7238 111.639 64.7327C111.715 64.7372 111.831 64.7394 111.987 64.7394C112.12 64.7394 112.238 64.7372 112.341 64.7327C112.448 64.7283 112.504 64.726 112.508 64.726H114.962ZM114.754 62.8139C114.83 62.8139 114.91 62.8139 114.995 62.8139C115.084 62.8095 115.165 62.8184 115.236 62.8407C115.312 62.8585 115.372 62.8964 115.416 62.9543C115.465 63.0123 115.49 63.1014 115.49 63.2217C115.49 63.3287 115.445 63.4223 115.356 63.5025C115.285 63.5649 115.198 63.6006 115.095 63.6095C114.997 63.614 114.904 63.614 114.815 63.6095C114.792 63.6051 114.772 63.6028 114.754 63.6028C114.737 63.6028 114.717 63.6028 114.694 63.6028H111.01C111.006 63.6028 110.986 63.6028 110.95 63.6028C110.915 63.6028 110.872 63.5984 110.823 63.5895C110.779 63.5805 110.732 63.5694 110.683 63.556C110.634 63.5382 110.594 63.5115 110.563 63.4758C110.509 63.4179 110.482 63.3399 110.482 63.2418C110.482 63.1482 110.511 63.0724 110.569 63.0145C110.627 62.961 110.687 62.9164 110.75 62.8808C110.812 62.8451 110.877 62.8228 110.944 62.8139C110.957 62.8139 110.97 62.8161 110.984 62.8206C110.997 62.8206 111.01 62.8184 111.024 62.8139C111.086 62.805 111.153 62.805 111.224 62.8139C111.296 62.8184 111.369 62.8184 111.445 62.8139C111.677 62.805 111.911 62.8028 112.147 62.8072C112.388 62.8117 112.637 62.8139 112.896 62.8139C113.177 62.8139 113.475 62.8117 113.792 62.8072C114.108 62.8028 114.418 62.805 114.721 62.8139H114.754ZM112.983 60.7881C112.818 60.7881 112.653 60.7948 112.488 60.8082C112.328 60.8171 112.183 60.8372 112.053 60.8684C111.924 60.8996 111.819 60.9441 111.739 61.0021C111.659 61.0556 111.619 61.1247 111.619 61.2093C111.619 61.3609 111.739 61.4745 111.98 61.5503C112.225 61.6216 112.559 61.6528 112.983 61.6439C113.148 61.6439 113.31 61.6395 113.471 61.6305C113.636 61.6216 113.783 61.6038 113.912 61.5771C114.041 61.5459 114.146 61.5013 114.226 61.4433C114.307 61.3854 114.347 61.3074 114.347 61.2093C114.347 61.1247 114.307 61.0556 114.226 61.0021C114.146 60.9441 114.041 60.8996 113.912 60.8684C113.783 60.8372 113.636 60.8171 113.471 60.8082C113.31 60.7948 113.148 60.7881 112.983 60.7881Z" fill="#20A5FF"/>
<path d="M118.083 62.4796C117.994 62.3548 117.949 62.23 117.949 62.1052C117.949 62.0562 117.949 61.9604 117.949 61.8177C117.949 61.6707 117.949 61.5169 117.949 61.3564C117.954 61.196 117.956 61.0489 117.956 60.9152C117.956 60.777 117.956 60.6923 117.956 60.6611C117.952 60.5363 117.981 60.4227 118.043 60.3201C118.07 60.2577 118.116 60.2087 118.183 60.1731C118.246 60.1329 118.308 60.1062 118.371 60.0928C118.406 60.0884 118.442 60.0884 118.478 60.0928C118.518 60.0973 118.553 60.1062 118.584 60.1196C118.616 60.1329 118.64 60.1508 118.658 60.1731C118.68 60.1953 118.703 60.2199 118.725 60.2466C118.769 60.3179 118.801 60.387 118.818 60.4539C118.841 60.5163 118.854 60.5853 118.859 60.6611C118.863 60.7324 118.861 60.8127 118.852 60.9018C118.847 60.9909 118.845 61.0935 118.845 61.2093C118.845 61.3029 118.843 61.3943 118.839 61.4835C118.834 61.5681 118.836 61.6551 118.845 61.7442C118.85 61.7977 118.863 61.8356 118.885 61.8579C118.917 61.8891 118.943 61.9069 118.966 61.9113C118.97 61.9158 119.028 61.9203 119.139 61.9247C119.251 61.9247 119.378 61.9269 119.52 61.9314C119.663 61.9314 119.806 61.9314 119.948 61.9314C120.091 61.9314 120.2 61.9314 120.276 61.9314C120.352 61.9314 120.432 61.9314 120.517 61.9314C120.606 61.9269 120.686 61.9492 120.757 61.9983C120.806 62.0384 120.84 62.0896 120.858 62.152C120.875 62.2144 120.88 62.2791 120.871 62.3459C120.862 62.4083 120.84 62.4663 120.804 62.5197C120.773 62.5732 120.728 62.6111 120.67 62.6334C120.621 62.6557 120.57 62.6735 120.517 62.6869C120.468 62.6958 120.412 62.7003 120.35 62.7003H118.638C118.571 62.7003 118.511 62.6958 118.457 62.6869C118.408 62.678 118.359 62.6646 118.31 62.6468C118.27 62.6379 118.23 62.6178 118.19 62.5866C118.154 62.5554 118.119 62.5197 118.083 62.4796ZM122.235 63.2351C122.297 63.2708 122.342 63.3309 122.369 63.4156C122.4 63.4959 122.415 63.5739 122.415 63.6496V64.1644C122.415 64.2848 122.384 64.394 122.322 64.492C122.259 64.5856 122.168 64.6324 122.048 64.6324C122.016 64.6369 121.985 64.6391 121.954 64.6391C121.927 64.6391 121.898 64.6391 121.867 64.6391H118.825V64.9266H122.115C122.15 64.9311 122.181 64.9377 122.208 64.9467C122.235 64.9556 122.264 64.9645 122.295 64.9734C122.335 64.9957 122.364 65.0291 122.382 65.0737C122.4 65.1138 122.409 65.1584 122.409 65.2074C122.413 65.2564 122.409 65.3032 122.395 65.3478C122.382 65.3968 122.362 65.4347 122.335 65.4615C122.286 65.5194 122.219 65.5506 122.135 65.5551C122.054 65.564 121.983 65.5684 121.921 65.5684H118.651C118.602 65.5684 118.553 65.5662 118.504 65.5617C118.46 65.5617 118.413 65.5617 118.364 65.5617C118.226 65.5528 118.132 65.5105 118.083 65.4347C118.038 65.3634 118.012 65.2631 118.003 65.1339L117.996 64.6458C117.996 64.6235 117.996 64.5856 117.996 64.5321C117.996 64.4787 117.998 64.4341 118.003 64.3984C118.007 64.3227 118.03 64.2625 118.07 64.2179C118.137 64.16 118.208 64.1199 118.284 64.0976C118.359 64.0797 118.451 64.0708 118.558 64.0708C118.772 64.0708 118.986 64.0731 119.2 64.0775C119.414 64.0775 119.627 64.0775 119.841 64.0775H121.64V63.79H118.337C118.275 63.79 118.219 63.7744 118.17 63.7432C118.121 63.7076 118.083 63.6652 118.056 63.6162C118.034 63.5627 118.025 63.507 118.03 63.4491C118.034 63.3867 118.056 63.3309 118.096 63.2819C118.137 63.2373 118.181 63.2061 118.23 63.1883C118.284 63.166 118.337 63.1527 118.391 63.1482C118.449 63.1393 118.506 63.1348 118.564 63.1348C118.622 63.1348 118.678 63.1348 118.732 63.1348H121.707C121.947 63.1348 122.123 63.1683 122.235 63.2351ZM123.164 61.2628C123.173 61.2896 123.178 61.3163 123.178 61.3431C123.178 61.3698 123.178 61.401 123.178 61.4367C123.178 61.508 123.166 61.5637 123.144 61.6038C123.091 61.6885 123.01 61.7375 122.903 61.7509C122.854 61.7598 122.799 61.7665 122.736 61.7709C122.678 61.7709 122.614 61.7732 122.542 61.7776H122.435V62.025C122.435 62.074 122.435 62.1253 122.435 62.1788C122.435 62.2323 122.431 62.2835 122.422 62.3325C122.409 62.4484 122.375 62.5532 122.322 62.6468C122.273 62.7359 122.181 62.7805 122.048 62.7805C121.905 62.7805 121.805 62.7381 121.747 62.6535C121.689 62.5643 121.651 62.4573 121.633 62.3325C121.633 62.3236 121.631 62.2947 121.626 62.2456C121.626 62.1921 121.626 62.1275 121.626 62.0517C121.626 61.9715 121.626 61.8846 121.626 61.791C121.626 61.6974 121.626 61.6016 121.626 61.5035V60.7347C121.626 60.7124 121.624 60.6879 121.62 60.6611C121.62 60.6299 121.622 60.6009 121.626 60.5742C121.635 60.4182 121.68 60.2934 121.76 60.1998C121.84 60.1062 121.965 60.0661 122.135 60.0795C122.206 60.0884 122.262 60.1129 122.302 60.153C122.342 60.1887 122.371 60.2332 122.389 60.2867C122.411 60.3402 122.424 60.3981 122.429 60.4605C122.433 60.5185 122.435 60.5742 122.435 60.6277V61.0288H122.489C122.516 61.0288 122.542 61.0311 122.569 61.0355C122.596 61.0355 122.623 61.0377 122.649 61.0422C122.681 61.0422 122.707 61.0422 122.73 61.0422C122.756 61.0422 122.783 61.0444 122.81 61.0489C122.832 61.0533 122.85 61.0556 122.863 61.0556C122.881 61.0556 122.897 61.0578 122.91 61.0623C122.999 61.0845 123.062 61.1091 123.097 61.1358C123.133 61.1759 123.155 61.2183 123.164 61.2628Z" fill="#20A5FF"/>
<path d="M33.6221 41.8383C31.9764 41.9041 30.38 41.9535 28.833 41.9864C27.2861 42.0193 25.6733 42.0357 23.9946 42.0357C23.9617 42.7269 23.9288 43.3523 23.8959 43.9119C23.863 44.4385 23.8465 45.1626 23.8465 46.0842C23.7807 46.4463 23.6161 46.7589 23.3528 47.0223C23.1224 47.2856 22.8426 47.516 22.5135 47.7135C22.1844 47.9109 21.8223 48.0591 21.4273 48.1578C21.0653 48.2236 20.7197 48.2565 20.3905 48.2565C19.4031 48.1907 18.6296 47.9439 18.0701 47.516C17.5434 47.0881 17.2308 46.3804 17.132 45.393C17.0662 44.7347 17.0497 44.1587 17.0826 43.665C17.1485 43.1713 17.1814 42.5953 17.1814 41.937C16.4243 41.937 15.4369 41.937 14.2191 41.937C13.0342 41.9041 11.7999 41.8876 10.5162 41.8876C9.23258 41.8547 7.99829 41.8218 6.81338 41.7889C5.62846 41.756 4.69041 41.7066 3.99921 41.6408C3.47258 41.5749 3.04469 41.5091 2.71555 41.4433C2.41932 41.3445 2.05726 41.0977 1.62938 40.7027C1.39898 40.5052 1.23441 40.2419 1.13566 39.9128C1.03692 39.5836 0.987549 39.238 0.987549 38.876C0.987549 38.1848 1.20149 37.6252 1.62938 37.1973C1.85978 36.934 2.17246 36.7365 2.56743 36.6049C2.96241 36.4732 3.34092 36.3745 3.70298 36.3087C4.06503 36.2428 4.37772 36.2099 4.64103 36.2099C4.93726 36.2099 5.10184 36.2099 5.13475 36.2099H33.3752C33.8689 36.2099 34.3626 36.2099 34.8564 36.2099C35.3501 36.2099 35.8273 36.2264 36.2881 36.2593C36.7489 36.2922 37.1933 36.358 37.6212 36.4568C38.082 36.5555 38.4934 36.7695 38.8554 37.0986C39.2175 37.3619 39.415 37.6581 39.4479 37.9873C39.5137 38.3164 39.5466 38.6785 39.5466 39.0735C39.5466 39.5672 39.3985 40.0115 39.1023 40.4065C38.839 40.8015 38.4605 41.0812 37.9668 41.2458C37.3085 41.5091 36.5844 41.6737 35.7944 41.7395C35.0374 41.7724 34.3133 41.8053 33.6221 41.8383ZM35.0045 51.1695C35.0374 51.1695 35.1526 51.2024 35.3501 51.2682C35.5476 51.334 35.7615 51.4492 35.9919 51.6138C36.2552 51.7455 36.4856 51.9429 36.6831 52.2063C36.9135 52.4367 37.0616 52.7164 37.1274 53.0456C37.3249 54.2963 37.1274 55.2673 36.535 55.9585C36.1729 56.4193 35.778 56.6991 35.3501 56.7978C34.9222 56.8965 34.6918 56.9459 34.6589 56.9459H7.50458C7.17544 56.9459 6.78046 56.8965 6.31966 56.7978C5.89178 56.732 5.48035 56.5839 5.08538 56.3535C4.69041 56.1231 4.34481 55.8433 4.04858 55.5141C3.78526 55.1521 3.65361 54.6913 3.65361 54.1317V50.182C3.58778 49.4579 3.58778 48.7173 3.65361 47.9603C3.71943 47.2691 3.98275 46.7096 4.44355 46.2817C4.90435 45.8538 5.48035 45.6399 6.17155 45.6399C6.33612 45.6399 6.55006 45.6563 6.81338 45.6892C7.10961 45.6892 7.34001 45.7221 7.50458 45.788C7.93246 45.9196 8.26161 46.1171 8.49201 46.3804C8.75532 46.6437 8.95281 46.9564 9.08446 47.3185C9.21612 47.6476 9.29841 48.0097 9.33132 48.4047C9.36424 48.7667 9.38069 49.1288 9.38069 49.4908L9.43006 51.0707C9.36423 51.1036 9.51235 51.1365 9.87441 51.1695C10.2365 51.2024 10.6973 51.2353 11.2568 51.2682C11.8493 51.2682 12.4746 51.2682 13.1329 51.2682C13.7912 51.2682 14.4001 51.2682 14.9597 51.2682C15.5521 51.2353 16.0294 51.2188 16.3914 51.2188C16.7535 51.2188 16.9181 51.2024 16.8851 51.1695H35.0045ZM6.96149 17.9919C7.35646 17.8273 7.73498 17.745 8.09703 17.745C8.26161 17.745 8.44264 17.7615 8.64012 17.7944C8.83761 17.7944 9.01863 17.8273 9.18321 17.8931C9.77566 18.0577 10.22 18.3539 10.5162 18.7818C10.7796 19.1439 10.9606 19.5224 11.0593 19.9173C11.1251 20.1807 11.1745 20.4604 11.2074 20.7567C11.2404 21.0529 11.2733 21.3491 11.3062 21.6453L11.6024 25.2001C11.6353 25.4963 11.6353 25.7103 11.6024 25.8419C11.5695 25.9736 11.6189 26.1711 11.7505 26.4344C11.8493 26.6977 11.9645 26.8787 12.0961 26.9775C12.2607 27.0433 12.4417 27.0927 12.6392 27.1256C12.8367 27.1256 13.0342 27.1091 13.2317 27.0762C13.4292 27.0433 13.6266 27.0433 13.8241 27.0762H28.1418C28.5039 27.0433 28.8824 27.0433 29.2774 27.0762C29.6724 27.0762 30.0673 27.0762 30.4623 27.0762C31.0548 27.0762 31.6966 27.1749 32.3878 27.3724C33.1119 27.537 33.6714 27.9484 34.0664 28.6067C34.3956 29.1333 34.4943 29.5941 34.3626 29.9891C34.231 30.3841 33.9183 30.7955 33.4246 31.2234C33.0296 31.5525 32.5688 31.7994 32.0422 31.964C31.5485 32.0956 31.0383 32.1944 30.5117 32.2602C29.985 32.2931 29.442 32.3096 28.8824 32.3096C28.3558 32.3096 27.8456 32.3096 27.3519 32.3096C27.0886 32.3096 26.8088 32.3096 26.5126 32.3096C26.2164 32.2767 25.9366 32.2767 25.6733 32.3096H23.9946C23.7313 32.3096 23.1389 32.3096 22.2173 32.3096C21.3286 32.3096 20.3741 32.3096 19.3537 32.3096C18.3334 32.3096 17.3624 32.3096 16.4408 32.3096C15.5521 32.3096 14.9761 32.3096 14.7128 32.3096C14.2191 32.2767 13.7089 32.2767 13.1823 32.3096C12.6557 32.3096 12.129 32.3096 11.6024 32.3096C11.0429 32.3096 10.4339 32.2931 9.77566 32.2602C9.15029 32.2273 8.54138 32.1285 7.94892 31.964C7.38938 31.7665 6.87921 31.4867 6.41841 31.1247C5.95761 30.7297 5.62846 30.1866 5.43098 29.4954C5.29932 29.1333 5.18412 28.8207 5.08538 28.5573C5.01955 28.2611 4.98663 27.932 4.98663 27.5699C5.01955 27.4053 5.03601 27.0433 5.03601 26.4837C5.03601 25.8913 5.01955 25.2659 4.98663 24.6076C4.98663 23.9164 4.97018 23.2911 4.93726 22.7315C4.93726 22.1391 4.93726 21.7605 4.93726 21.596C5.00309 21.1681 5.08538 20.7567 5.18412 20.3617C5.28286 19.9338 5.43098 19.5388 5.62846 19.1768C5.76012 18.9793 5.95761 18.7818 6.22092 18.5843C6.51715 18.3539 6.76401 18.1564 6.96149 17.9919Z" fill="#0A2342"/>
</svg>
